<svg width="136" height="23" viewBox="0 0 136 23" fill="none" xmlns="http://www.w3.org/2000/svg">
<path d="M39.843 16.0784L36.5719 8.28584L35.5432 7.95945L35.5844 7.16387H39.7401L39.7813 7.95945L38.7115 8.28584L41.0157 14.0996L40.4808 14.12L42.8672 8.28584L41.7974 7.95945L41.8386 7.16387H45.1302L45.1714 7.95945L44.2045 8.28584L40.563 16.0784H39.843ZM33.6917 16.0784L30.256 8.28584L29.2891 7.95945L29.3302 7.16387H33.5065L33.5477 7.95945L32.519 8.28584L34.9672 14.0996L34.3294 14.12L36.9628 8.16344L37.58 9.4486L34.4117 16.0784H33.6917Z" fill="#18181A"/>
<path d="M50.0472 16.16C49.2243 16.16 48.4836 15.9764 47.8253 15.6092C47.167 15.242 46.6458 14.7252 46.2618 14.0588C45.8914 13.3925 45.7063 12.6173 45.7063 11.7333C45.7063 10.7813 45.912 9.95178 46.3235 9.2446C46.7349 8.52383 47.2698 7.96625 47.9282 7.57186C48.5865 7.17747 49.2997 6.98708 50.0678 7.00068C51.1924 7.01428 52.0565 7.38147 52.66 8.10224C53.2771 8.80942 53.5857 9.77498 53.5857 10.9989V11.4069H47.3933V10.4482H52.0428L51.7753 10.7949V10.285C51.7753 9.55059 51.6039 8.97941 51.261 8.57143C50.9318 8.14984 50.4792 7.93905 49.9032 7.93905C49.5329 7.93905 49.1763 8.04784 48.8334 8.26544C48.5042 8.48303 48.2368 8.80942 48.031 9.2446C47.839 9.67979 47.743 10.2238 47.743 10.8765V11.1825C47.743 12.2433 48.0105 13.0797 48.5454 13.6916C49.094 14.3036 49.8072 14.6096 50.6849 14.6096C51.165 14.6096 51.5902 14.5212 51.9605 14.3444C52.3445 14.154 52.7217 13.848 53.092 13.4265L53.6475 13.9364C53.2634 14.6844 52.756 15.242 52.1251 15.6092C51.5079 15.9764 50.8152 16.16 50.0472 16.16Z" fill="#18181A"/>
<path d="M59.4696 16.16C58.6604 16.16 57.9266 15.9832 57.2683 15.6296C56.61 15.276 56.0819 14.766 55.6842 14.0996C55.3001 13.4333 55.1081 12.6581 55.1081 11.7741C55.1081 10.8901 55.3139 10.0878 55.7253 9.367C56.1368 8.64622 56.706 8.07504 57.4329 7.65346C58.1598 7.21827 58.9827 7.00068 59.9016 7.00068C60.5051 7.00068 61.0194 7.08228 61.4446 7.24547C61.8835 7.39507 62.2195 7.59906 62.4527 7.85745C62.6858 8.11584 62.8024 8.38783 62.8024 8.67342C62.8024 8.93181 62.7201 9.14261 62.5555 9.3058C62.4047 9.4554 62.1989 9.53019 61.9384 9.53019C61.7052 9.53019 61.4995 9.48939 61.3212 9.4078C61.1429 9.3126 60.9371 9.14941 60.704 8.91821L59.5107 7.77585L60.3337 8.00025C59.8399 7.89145 59.353 7.94585 58.873 8.16344C58.4067 8.38103 58.0226 8.75502 57.7209 9.2854C57.4192 9.80218 57.2683 10.4686 57.2683 11.2845C57.2683 12.3589 57.5357 13.1817 58.0706 13.7528C58.6193 14.324 59.2982 14.6096 60.1074 14.6096C60.5874 14.6096 61.0126 14.5212 61.3829 14.3444C61.7669 14.154 62.1372 13.848 62.4938 13.4265L63.0699 13.916C62.6858 14.664 62.1784 15.2284 61.5475 15.6092C60.9303 15.9764 60.2377 16.16 59.4696 16.16Z" fill="#18181A"/>
<path d="M67.2256 16.16C66.6496 16.16 66.1421 16.0444 65.7032 15.8132C65.2643 15.5684 64.9283 15.2692 64.6951 14.9156C64.462 14.562 64.3454 14.2084 64.3454 13.8548C64.3454 13.3925 64.4963 13.0049 64.798 12.6921C65.0997 12.3793 65.5866 12.1209 66.2587 11.9169L69.4269 10.8969V9.95858C69.4269 9.63219 69.3241 9.3398 69.1183 9.08141C68.9263 8.80942 68.6657 8.59183 68.3366 8.42863C68.0074 8.26544 67.6439 8.18384 67.2462 8.18384C66.9307 8.18384 66.7181 8.25184 66.6084 8.38783C66.4987 8.51023 66.4301 8.76182 66.4027 9.14261L66.341 10.1218C65.7924 10.2442 65.326 10.2306 64.942 10.081C64.5717 9.91778 64.3865 9.65259 64.3865 9.2854C64.3865 9.05421 64.4963 8.81622 64.7157 8.57143C64.9489 8.32663 65.2369 8.09544 65.5798 7.87785C65.9364 7.66026 66.3135 7.47666 66.7113 7.32707C67.109 7.16387 67.4862 7.05508 67.8428 7.00068C68.9263 7.00068 69.7835 7.27267 70.4144 7.81665C71.059 8.34703 71.3882 9.05421 71.4019 9.93818L71.3608 13.1817C71.3608 13.4673 71.3676 13.7324 71.3814 13.9772C71.4088 14.2084 71.4431 14.3852 71.4842 14.5076L72.8215 14.7524V15.4664L71.7105 15.8948C71.5048 15.9764 71.3128 16.0376 71.1345 16.0784C70.9562 16.1328 70.7985 16.16 70.6613 16.16C70.2087 16.16 69.9001 15.9152 69.7355 15.4256L69.4681 14.5688L69.8178 14.6096C69.3789 15.1128 68.9469 15.5004 68.5217 15.7724C68.0965 16.0308 67.6645 16.16 67.2256 16.16ZM67.9457 14.7524C68.22 14.7524 68.4806 14.6912 68.7274 14.5688C68.9743 14.4464 69.2075 14.2628 69.4269 14.018V11.9169L67.4108 12.4065C67.0816 12.4881 66.8416 12.6173 66.6907 12.7941C66.5536 12.9573 66.485 13.1749 66.485 13.4469C66.485 13.7868 66.629 14.0928 66.917 14.3648C67.205 14.6232 67.5479 14.7524 67.9457 14.7524Z" fill="#18181A"/>
<path d="M73.7061 15.9968L73.6444 15.2012L74.9199 14.8748C74.9336 14.8068 74.9473 14.6912 74.961 14.528C74.9748 14.3512 74.9885 14.12 75.0022 13.8344C75.0159 13.5489 75.0228 13.1885 75.0228 12.7533L75.0433 11.1825C75.0433 10.7474 75.0228 10.3326 74.9816 9.93818C74.9542 9.53019 74.913 9.1834 74.8582 8.89781L73.5415 8.61222V7.85745L76.5863 7.04148L76.9978 7.38827L76.8949 8.48983L76.9566 8.51023C77.4092 7.99345 77.8756 7.61266 78.3556 7.36787C78.8493 7.12308 79.3705 7.00068 79.9191 7.00068C80.454 7.00068 80.9478 7.13668 81.4004 7.40867C81.853 7.66706 82.2164 8.06144 82.4908 8.59183C82.7788 9.12221 82.9228 9.78178 82.9228 10.5706V12.7737C82.9228 13.2497 82.9296 13.6916 82.9434 14.0996C82.9571 14.494 82.9845 14.7524 83.0257 14.8748L84.3012 15.2012L84.2395 15.9968H79.7751L79.734 15.2012L80.9272 14.8748C80.9409 14.766 80.9546 14.6232 80.9684 14.4464C80.9821 14.256 80.9889 14.0316 80.9889 13.7732C81.0026 13.5149 81.0095 13.2157 81.0095 12.8757V10.8357C81.0095 10.2646 80.9135 9.80898 80.7215 9.46899C80.5295 9.11541 80.2826 8.86382 79.9809 8.71422C79.6928 8.55103 79.3842 8.46943 79.0551 8.46943C78.6299 8.46943 78.2322 8.57143 77.8618 8.77542C77.5052 8.96581 77.1966 9.2378 76.9361 9.59139V12.6309C76.9361 13.2157 76.9429 13.7052 76.9566 14.0996C76.9841 14.494 77.0183 14.7524 77.0595 14.8748L78.335 15.2012L78.2733 15.9968H73.7061Z" fill="#18181A"/>
<path d="M85.2475 15.9968L85.1858 15.2012L86.4613 14.8748C86.475 14.8068 86.4888 14.6912 86.5025 14.528C86.5162 14.3512 86.5299 14.12 86.5436 13.8344C86.5573 13.5489 86.5642 13.1885 86.5642 12.7533L86.5848 11.1825C86.5848 10.7474 86.5642 10.3326 86.5231 9.93818C86.4956 9.53019 86.4545 9.1834 86.3996 8.89781L85.0829 8.61222V7.85745L88.1277 7.04148L88.5392 7.38827L88.4363 8.48983L88.4981 8.51023C88.9507 7.99345 89.417 7.61266 89.897 7.36787C90.3908 7.12308 90.912 7.00068 91.4606 7.00068C91.9955 7.00068 92.4892 7.13668 92.9418 7.40867C93.3944 7.66706 93.7579 8.06144 94.0322 8.59183C94.3202 9.12221 94.4642 9.78178 94.4642 10.5706V12.7737C94.4642 13.2497 94.4711 13.6916 94.4848 14.0996C94.4985 14.494 94.5259 14.7524 94.5671 14.8748L95.8426 15.2012L95.7809 15.9968H91.3166L91.2754 15.2012L92.4686 14.8748C92.4824 14.766 92.4961 14.6232 92.5098 14.4464C92.5235 14.256 92.5304 14.0316 92.5304 13.7732C92.5441 13.5149 92.5509 13.2157 92.5509 12.8757V10.8357C92.5509 10.2646 92.4549 9.80898 92.2629 9.46899C92.0709 9.11541 91.824 8.86382 91.5223 8.71422C91.2343 8.55103 90.9257 8.46943 90.5965 8.46943C90.1713 8.46943 89.7736 8.57143 89.4033 8.77542C89.0467 8.96581 88.7381 9.2378 88.4775 9.59139V12.6309C88.4775 13.2157 88.4843 13.7052 88.4981 14.0996C88.5255 14.494 88.5598 14.7524 88.6009 14.8748L89.8764 15.2012L89.8147 15.9968H85.2475Z" fill="#18181A"/>
<path d="M98.8051 16.2008C98.3937 16.2008 98.0439 16.0648 97.7559 15.7928C97.4679 15.5072 97.3239 15.1672 97.3239 14.7728C97.3239 14.4872 97.3856 14.2424 97.509 14.0384C97.6325 13.8208 97.8039 13.6509 98.0233 13.5285C98.2565 13.3925 98.5171 13.3245 98.8051 13.3245C99.2303 13.3245 99.5869 13.4605 99.8749 13.7324C100.163 14.0044 100.307 14.3444 100.307 14.7524C100.307 15.174 100.163 15.5208 99.8749 15.7928C99.5869 16.0648 99.2303 16.2008 98.8051 16.2008Z" fill="#18181A"/>
<path d="M106.253 16.16C105.443 16.16 104.71 15.9832 104.051 15.6296C103.393 15.276 102.865 14.766 102.467 14.0996C102.083 13.4333 101.891 12.6581 101.891 11.7741C101.891 10.8901 102.097 10.0878 102.508 9.367C102.92 8.64622 103.489 8.07504 104.216 7.65346C104.943 7.21827 105.766 7.00068 106.685 7.00068C107.288 7.00068 107.802 7.08228 108.228 7.24547C108.666 7.39507 109.002 7.59906 109.236 7.85745C109.469 8.11584 109.585 8.38783 109.585 8.67342C109.585 8.93181 109.503 9.14261 109.338 9.3058C109.188 9.4554 108.982 9.53019 108.721 9.53019C108.488 9.53019 108.282 9.48939 108.104 9.4078C107.926 9.3126 107.72 9.14941 107.487 8.91821L106.294 7.77585L107.117 8.00025C106.623 7.89145 106.136 7.94585 105.656 8.16344C105.19 8.38103 104.806 8.75502 104.504 9.2854C104.202 9.80218 104.051 10.4686 104.051 11.2845C104.051 12.3589 104.319 13.1817 104.854 13.7528C105.402 14.324 106.081 14.6096 106.89 14.6096C107.37 14.6096 107.796 14.5212 108.166 14.3444C108.55 14.154 108.92 13.848 109.277 13.4265L109.853 13.916C109.469 14.664 108.961 15.2284 108.33 15.6092C107.713 15.9764 107.021 16.16 106.253 16.16Z" fill="#18181A"/>
<path d="M114.009 16.16C113.432 16.16 112.925 16.0444 112.486 15.8132C112.047 15.5684 111.711 15.2692 111.478 14.9156C111.245 14.562 111.128 14.2084 111.128 13.8548C111.128 13.3925 111.279 13.0049 111.581 12.6921C111.883 12.3793 112.37 12.1209 113.042 11.9169L116.21 10.8969V9.95858C116.21 9.63219 116.107 9.3398 115.901 9.08141C115.709 8.80942 115.449 8.59183 115.119 8.42863C114.79 8.26544 114.427 8.18384 114.029 8.18384C113.714 8.18384 113.501 8.25184 113.391 8.38783C113.282 8.51023 113.213 8.76182 113.186 9.14261L113.124 10.1218C112.575 10.2442 112.109 10.2306 111.725 10.081C111.355 9.91778 111.169 9.65259 111.169 9.2854C111.169 9.05421 111.279 8.81622 111.499 8.57143C111.732 8.32663 112.02 8.09544 112.363 7.87785C112.719 7.66026 113.096 7.47666 113.494 7.32707C113.892 7.16387 114.269 7.05508 114.626 7.00068C115.709 7.00068 116.566 7.27267 117.197 7.81665C117.842 8.34703 118.171 9.05421 118.185 9.93818L118.144 13.1817C118.144 13.4673 118.151 13.7324 118.164 13.9772C118.192 14.2084 118.226 14.3852 118.267 14.5076L119.604 14.7524V15.4664L118.493 15.8948C118.288 15.9764 118.096 16.0376 117.917 16.0784C117.739 16.1328 117.581 16.16 117.444 16.16C116.992 16.16 116.683 15.9152 116.518 15.4256L116.251 14.5688L116.601 14.6096C116.162 15.1128 115.73 15.5004 115.305 15.7724C114.879 16.0308 114.447 16.16 114.009 16.16ZM114.729 14.7524C115.003 14.7524 115.263 14.6912 115.51 14.5688C115.757 14.4464 115.99 14.2628 116.21 14.018V11.9169L114.194 12.4065C113.865 12.4881 113.625 12.6173 113.474 12.7941C113.336 12.9573 113.268 13.1749 113.268 13.4469C113.268 13.7868 113.412 14.0928 113.7 14.3648C113.988 14.6232 114.331 14.7524 114.729 14.7524Z" fill="#18181A"/>
<path d="M120.51 15.9968L120.448 15.2012L121.723 14.8748C121.737 14.8204 121.751 14.7048 121.765 14.528C121.778 14.3512 121.792 14.1132 121.806 13.814C121.819 13.5149 121.826 13.1613 121.826 12.7533L121.847 11.1825C121.847 10.7338 121.826 10.3122 121.785 9.91778C121.758 9.52339 121.717 9.1834 121.662 8.89781L120.345 8.61222V7.85745L123.369 7.04148L123.74 7.34747L123.657 9.02021L123.719 9.04061C124.117 8.26544 124.521 7.74185 124.933 7.46986C125.358 7.19787 125.769 7.06188 126.167 7.06188C126.496 7.06188 126.777 7.15027 127.011 7.32707C127.244 7.49026 127.36 7.74865 127.36 8.10224C127.36 8.45583 127.237 8.72782 126.99 8.91821C126.743 9.10861 126.435 9.2038 126.064 9.2038C125.79 9.2038 125.536 9.14941 125.303 9.04061C125.07 8.93181 124.837 8.76862 124.604 8.55103L125.015 8.65302C124.782 8.81622 124.556 9.03381 124.336 9.3058C124.117 9.57779 123.918 9.91098 123.74 10.3054L123.76 12.1005C123.774 12.4949 123.788 12.8825 123.801 13.2633C123.815 13.6305 123.829 13.9568 123.842 14.2424C123.856 14.528 123.87 14.7388 123.884 14.8748L125.673 15.1604L125.612 15.9968H120.51Z" fill="#18181A"/>
<path d="M132.401 16.16C131.578 16.16 130.837 15.9764 130.179 15.6092C129.521 15.242 128.999 14.7252 128.615 14.0588C128.245 13.3925 128.06 12.6173 128.06 11.7333C128.06 10.7813 128.266 9.95178 128.677 9.2446C129.089 8.52383 129.623 7.96625 130.282 7.57186C130.94 7.17747 131.653 6.98708 132.421 7.00068C133.546 7.01428 134.41 7.38147 135.014 8.10224C135.631 8.80942 135.939 9.77498 135.939 10.9989V11.4069H129.747V10.4482H134.396L134.129 10.7949V10.285C134.129 9.55059 133.957 8.97941 133.615 8.57143C133.285 8.14984 132.833 7.93905 132.257 7.93905C131.886 7.93905 131.53 8.04784 131.187 8.26544C130.858 8.48303 130.59 8.80942 130.385 9.2446C130.193 9.67979 130.097 10.2238 130.097 10.8765V11.1825C130.097 12.2433 130.364 13.0797 130.899 13.6916C131.448 14.3036 132.161 14.6096 133.039 14.6096C133.519 14.6096 133.944 14.5212 134.314 14.3444C134.698 14.154 135.075 13.848 135.446 13.4265L136.001 13.9364C135.617 14.6844 135.11 15.242 134.479 15.6092C133.861 15.9764 133.169 16.16 132.401 16.16Z" fill="#18181A"/>
<path d="M13.2014 15.882C15.739 16.4357 16.3926 19.4521 14.3377 20.8568C13.717 21.2808 12.9963 21.3992 12.2587 21.2761C11.1263 21.0778 10.4653 20.1483 9.47108 19.6623C9.13304 19.4971 8.64274 19.7369 8.35242 19.9932C6.29712 21.8071 5.23077 23.7474 2.09073 22.6671C0.209501 21.6956 -0.556002 19.2941 0.434883 17.4455C0.909172 16.5453 1.46113 16.016 2.43639 15.7157C4.16863 15.2013 5.58641 16.1289 7.07674 16.9626C10.137 18.4962 9.81845 15.3576 13.2014 15.882Z" fill="url(#paint0_linear_6700_9017)"/>
<path d="M9.58396 1.81108C10.681 0.0143683 12.9763 -0.54185 14.7636 0.580049C16.7033 1.80096 16.9781 4.05992 16.1255 5.64389C14.7739 7.83637 12.285 8.60162 12.2587 11.1708C12.2496 12.0604 12.1772 12.9901 11.4801 14.0058C11.0792 14.59 10.461 14.9911 9.76262 15.1213C9.0198 15.2661 8.24898 15.111 7.6218 14.689C6.39704 13.8513 6.04469 12.0977 6.89626 10.8753C7.53273 9.96201 8.84875 9.65895 9.73708 9.03117C10.2554 8.66487 10.2026 7.67238 10.15 7.38281C9.75155 5.1902 8.23297 4.02384 9.58396 1.81108Z" fill="url(#paint1_linear_6700_9017)"/>
<path d="M19.1136 12.4326C19.1136 13.9733 17.8431 15.2224 16.276 15.2224C14.4064 15.2338 13.4384 14.373 13.4384 12.4326C13.4384 10.8918 14.7088 9.64269 16.276 9.64269C17.8431 9.64269 19.1136 10.9661 19.1136 12.4326Z" fill="url(#paint2_linear_6700_9017)"/>
<path d="M25.2561 17.5938C26.1015 19.5621 25.0292 21.9013 23.1619 22.6912C21.1599 23.5381 19.0865 22.5721 18.0063 20.6607C16.9444 18.7818 17.6699 16.5915 20.1006 15.5633C22.1026 14.7164 24.4108 15.6255 25.2561 17.5938Z" fill="url(#paint3_linear_6700_9017)"/>
<defs>
<linearGradient id="paint0_linear_6700_9017" x1="0" y1="11.5" x2="25.549" y2="11.5" gradientUnits="userSpaceOnUse">
<stop stop-color="#588DFF"/>
<stop offset="0.278846" stop-color="#94B8F0"/>
<stop offset="0.552885" stop-color="#F36350"/>
<stop offset="1" stop-color="#FCD757"/>
</linearGradient>
<linearGradient id="paint1_linear_6700_9017" x1="0" y1="11.5" x2="25.549" y2="11.5" gradientUnits="userSpaceOnUse">
<stop stop-color="#588DFF"/>
<stop offset="0.278846" stop-color="#94B8F0"/>
<stop offset="0.552885" stop-color="#F36350"/>
<stop offset="1" stop-color="#FCD757"/>
</linearGradient>
<linearGradient id="paint2_linear_6700_9017" x1="0" y1="11.5" x2="25.549" y2="11.5" gradientUnits="userSpaceOnUse">
<stop stop-color="#588DFF"/>
<stop offset="0.278846" stop-color="#94B8F0"/>
<stop offset="0.552885" stop-color="#F36350"/>
<stop offset="1" stop-color="#FCD757"/>
</linearGradient>
<linearGradient id="paint3_linear_6700_9017" x1="0" y1="11.5" x2="25.549" y2="11.5" gradientUnits="userSpaceOnUse">
<stop stop-color="#588DFF"/>
<stop offset="0.278846" stop-color="#94B8F0"/>
<stop offset="0.552885" stop-color="#F36350"/>
<stop offset="1" stop-color="#FCD757"/>
</linearGradient>
</defs>
</svg>
