<svg preserveAspectRatio="none" width="100%" height="100%" overflow="visible" style="display: block;" viewBox="0 0 20 20" fill="none" xmlns="http://www.w3.org/2000/svg">
<g id="thumb_up">
<mask id="mask0_0_567" style="mask-type:alpha" maskUnits="userSpaceOnUse" x="0" y="0" width="20" height="20">
<rect id="Bounding box" width="20" height="20" fill="var(--fill-0, #D9D9D9)"/>
</mask>
<g mask="url(#mask0_0_567)">
<path id="thumb_up_2" d="M14.5513 16.6678H6.18583V7.50117L11.4102 2.34096L11.7788 2.7095C11.8547 2.78533 11.9186 2.88256 11.9704 3.00117C12.0222 3.11978 12.0481 3.22874 12.0481 3.32804V3.4595L11.1954 7.50117H16.9871C17.3354 7.50117 17.6469 7.63846 17.9215 7.91304C18.196 8.18763 18.3333 8.49908 18.3333 8.84742V9.87304C18.3333 9.94888 18.3248 10.0317 18.3077 10.1214C18.2906 10.2111 18.2682 10.2939 18.2404 10.3697L15.9648 15.7641C15.8505 16.0205 15.6582 16.2352 15.3879 16.4083C15.1175 16.5813 14.8386 16.6678 14.5513 16.6678ZM7.01917 15.8345H14.5513C14.6688 15.8345 14.789 15.8024 14.9119 15.7383C15.0348 15.6742 15.1283 15.5674 15.1923 15.4178L17.5 10.0012V8.84742C17.5 8.69783 17.4519 8.57492 17.3558 8.47867C17.2596 8.38256 17.1367 8.3345 16.9871 8.3345H10.1602L11.125 3.78325L7.01917 7.857V15.8345ZM6.18583 7.50117V8.3345H3.33333V15.8345H6.18583V16.6678H2.5V7.50117H6.18583Z" fill="var(--fill-0, #676867)"/>
</g>
</g>
</svg>
