<svg preserveAspectRatio="none" width="100%" height="100%" overflow="visible" style="display: block;" viewBox="0 0 20 20" fill="none" xmlns="http://www.w3.org/2000/svg">
<g id="thumb_down">
<mask id="mask0_0_574" style="mask-type:alpha" maskUnits="userSpaceOnUse" x="0" y="0" width="20" height="20">
<rect id="Bounding box" width="20" height="20" fill="var(--fill-0, #D9D9D9)"/>
</mask>
<g mask="url(#mask0_0_574)">
<path id="thumb_down_2" d="M5.44887 4.0067H13.8143V13.1734L8.58991 18.3336L8.22137 17.965C8.14539 17.8892 8.08151 17.792 8.0297 17.6734C7.97789 17.5548 7.95199 17.4458 7.95199 17.3465V17.215L8.8047 13.1734H3.01303C2.6647 13.1734 2.35324 13.0361 2.07866 12.7615C1.80407 12.4869 1.66678 12.1754 1.66678 11.8271V10.8015C1.66678 10.7257 1.67532 10.6429 1.69241 10.5532C1.70949 10.4634 1.73192 10.3807 1.7597 10.3048L4.03532 4.91045C4.14963 4.65406 4.34192 4.43934 4.6122 4.26628C4.88262 4.09322 5.16151 4.0067 5.44887 4.0067ZM12.9809 4.84003H5.44887C5.33137 4.84003 5.21116 4.87204 5.08824 4.93607C4.96532 5.00024 4.87185 5.10711 4.80782 5.2567L2.50012 10.6734V11.8271C2.50012 11.9767 2.54817 12.0995 2.64428 12.1957C2.74053 12.2919 2.86345 12.34 3.01303 12.34H9.83991L8.87512 16.8913L12.9809 12.8175V4.84003ZM13.8143 13.1734V12.34H16.6668V4.84003H13.8143V4.0067H17.5001V13.1734H13.8143Z" fill="var(--fill-0, #676867)"/>
</g>
</g>
</svg>
