<svg preserveAspectRatio="none" width="100%" height="100%" overflow="visible" style="display: block;" viewBox="0 0 15.5564 7.41017" fill="none" xmlns="http://www.w3.org/2000/svg">
<path id="Vector" d="M13.2014 0.314248C15.739 0.867913 16.3926 3.88428 14.3377 5.28897C13.717 5.71302 12.9963 5.83143 12.2587 5.70834C11.1263 5.51004 10.4653 4.58049 9.47108 4.09454C9.13304 3.92932 8.64274 4.16915 8.35242 4.42537C6.29712 6.23928 5.23077 8.17962 2.09073 7.09926C0.209501 6.12778 -0.556002 3.72633 0.434883 1.87774C0.909172 0.977511 1.46113 0.448154 2.43639 0.147871C4.16863 -0.366486 5.58641 0.561077 7.07674 1.39477C10.137 2.92845 9.81845 -0.210223 13.2014 0.314248Z" fill="url(#paint0_linear_0_557)"/>
<defs>
<linearGradient id="paint0_linear_0_557" x1="-3.5" y1="3.70508" x2="83.5" y2="3.70508" gradientUnits="userSpaceOnUse">
<stop stop-color="#588DFF"/>
<stop offset="0.25" stop-color="#F36350"/>
<stop offset="1" stop-color="#FCD757"/>
</linearGradient>
</defs>
</svg>
