<svg preserveAspectRatio="none" width="100%" height="100%" overflow="visible" style="display: block;" viewBox="0 0 20 20" fill="none" xmlns="http://www.w3.org/2000/svg">
<g id="file_copy">
<mask id="mask0_0_550" style="mask-type:alpha" maskUnits="userSpaceOnUse" x="0" y="0" width="20" height="20">
<rect id="Bounding box" width="20" height="20" fill="var(--fill-0, #D9D9D9)"/>
</mask>
<g mask="url(#mask0_0_550)">
<path id="file_copy_2" d="M15.3204 15.0005H7.17958C6.79597 15.0005 6.47569 14.872 6.21875 14.615C5.96181 14.3581 5.83333 14.0378 5.83333 13.6542V3.01338C5.83333 2.62977 5.96181 2.30949 6.21875 2.05255C6.47569 1.7956 6.79597 1.66713 7.17958 1.66713H12.9167L16.6667 5.41713V13.6542C16.6667 14.0378 16.5382 14.3581 16.2813 14.615C16.0243 14.872 15.704 15.0005 15.3204 15.0005ZM12.5 5.8338V2.50046H7.17958C7.05125 2.50046 6.93368 2.55387 6.82688 2.66067C6.72007 2.76748 6.66667 2.88505 6.66667 3.01338V13.6542C6.66667 13.7825 6.72007 13.9001 6.82688 14.0069C6.93368 14.1137 7.05125 14.1671 7.17958 14.1671H15.3204C15.4488 14.1671 15.5663 14.1137 15.6731 14.0069C15.7799 13.9001 15.8333 13.7825 15.8333 13.6542V5.8338H12.5ZM3.84625 18.3338C3.46264 18.3338 3.14236 18.2053 2.88542 17.9484C2.62847 17.6914 2.5 17.3712 2.5 16.9875V6.66713H3.33333V16.9875C3.33333 17.1159 3.38674 17.2335 3.49354 17.3403C3.60035 17.4471 3.71792 17.5005 3.84625 17.5005H11.6667V18.3338H3.84625Z" fill="var(--fill-0, #676867)"/>
</g>
</g>
</svg>
