<svg preserveAspectRatio="none" width="100%" height="100%" overflow="visible" style="display: block;" viewBox="0 0 24 24" fill="none" xmlns="http://www.w3.org/2000/svg">
<g id="import_contacts">
<mask id="mask0_0_539" style="mask-type:alpha" maskUnits="userSpaceOnUse" x="0" y="0" width="24" height="24">
<rect id="Bounding box" width="24" height="24" fill="var(--fill-0, #D9D9D9)"/>
</mask>
<g mask="url(#mask0_0_539)">
<path id="import_contacts_2" d="M6.5 16.0385C7.373 16.0385 8.222 16.1388 9.047 16.3395C9.872 16.5402 10.6897 16.8667 11.5 17.3192V7.50775C10.7782 6.99225 9.98267 6.60567 9.1135 6.348C8.24417 6.09033 7.373 5.9615 6.5 5.9615C5.9 5.9615 5.37467 5.99742 4.924 6.06925C4.47333 6.14108 3.973 6.27442 3.423 6.46925C3.26917 6.52058 3.16025 6.59433 3.09625 6.6905C3.03208 6.7865 3 6.89225 3 7.00775V16.023C3 16.2025 3.06408 16.3339 3.19225 16.4173C3.32042 16.5006 3.4615 16.5103 3.6155 16.4463C3.98083 16.3231 4.40292 16.2243 4.88175 16.15C5.36058 16.0757 5.9 16.0385 6.5 16.0385ZM12.5 17.3192C13.3103 16.8667 14.128 16.5402 14.953 16.3395C15.778 16.1388 16.627 16.0385 17.5 16.0385C18.1 16.0385 18.6394 16.0757 19.1182 16.15C19.5971 16.2243 20.0192 16.3231 20.3845 16.4463C20.5385 16.5103 20.6796 16.5006 20.8078 16.4173C20.9359 16.3339 21 16.2025 21 16.023V7.00775C21 6.89225 20.9679 6.78967 20.9038 6.7C20.8398 6.61033 20.7308 6.53342 20.577 6.46925C20.027 6.27442 19.5267 6.14108 19.076 6.06925C18.6253 5.99742 18.1 5.9615 17.5 5.9615C16.627 5.9615 15.7558 6.09033 14.8865 6.348C14.0173 6.60567 13.2218 6.99225 12.5 7.50775V17.3192ZM12 18.7693C11.1872 18.2128 10.3141 17.7852 9.38075 17.4865C8.44742 17.1878 7.48717 17.0385 6.5 17.0385C5.9795 17.0385 5.46825 17.0821 4.96625 17.1693C4.46442 17.2564 3.97567 17.3962 3.5 17.5885C3.13717 17.7333 2.7965 17.6897 2.478 17.4577C2.15933 17.2257 2 16.9053 2 16.4963V6.83075C2 6.58325 2.06508 6.35375 2.19525 6.14225C2.32542 5.93075 2.50775 5.78333 2.74225 5.7C3.32942 5.441 3.94033 5.25317 4.575 5.1365C5.20967 5.01983 5.85133 4.9615 6.5 4.9615C7.4795 4.9615 8.43492 5.1025 9.36625 5.3845C10.2977 5.66667 11.1757 6.077 12 6.6155C12.8243 6.077 13.7022 5.66667 14.6337 5.3845C15.5651 5.1025 16.5205 4.9615 17.5 4.9615C18.1487 4.9615 18.7903 5.01983 19.425 5.1365C20.0597 5.25317 20.6706 5.441 21.2577 5.7C21.4922 5.78333 21.6746 5.93075 21.8048 6.14225C21.9349 6.35375 22 6.58325 22 6.83075V16.4963C22 16.9053 21.8279 17.2193 21.4837 17.4385C21.1394 17.6577 20.773 17.6948 20.3845 17.55C19.9218 17.3705 19.4491 17.2403 18.9663 17.1595C18.4836 17.0788 17.9948 17.0385 17.5 17.0385C16.5128 17.0385 15.5526 17.1878 14.6193 17.4865C13.6859 17.7852 12.8128 18.2128 12 18.7693Z" fill="var(--fill-0, #1C1B1F)"/>
</g>
</g>
</svg>
