<svg preserveAspectRatio="none" width="100%" height="100%" overflow="visible" style="display: block;" viewBox="0 0 22 22" fill="none" xmlns="http://www.w3.org/2000/svg">
<g id="Frame">
<path id="Vector" d="M17.9208 18.2417L12.1 12.4208C11.6417 12.8333 11.1146 13.1465 10.5188 13.3604C9.92292 13.5743 9.32708 13.6813 8.73125 13.6813C7.32569 13.6813 6.13785 13.1962 5.16771 12.226C4.19757 11.2559 3.7125 10.0757 3.7125 8.68542C3.7125 7.27986 4.19757 6.09201 5.16771 5.12188C6.13785 4.15174 7.31806 3.66667 8.70833 3.66667C10.1139 3.66667 11.3056 4.15174 12.2833 5.12188C13.2611 6.09201 13.75 7.27222 13.75 8.6625C13.75 9.28889 13.6354 9.90382 13.4063 10.5073C13.1771 11.1108 12.8639 11.6264 12.4667 12.0542L18.2875 17.8521L17.9208 18.2417ZM8.73125 13.1771C9.99931 13.1771 11.0687 12.7455 11.9396 11.8823C12.8104 11.0191 13.2458 9.94583 13.2458 8.6625C13.2458 7.39444 12.8104 6.32882 11.9396 5.46563C11.0687 4.60243 9.99931 4.17083 8.73125 4.17083C7.46319 4.17083 6.39375 4.60243 5.52292 5.46563C4.65208 6.32882 4.21667 7.39444 4.21667 8.6625C4.21667 9.94583 4.65208 11.0191 5.52292 11.8823C6.39375 12.7455 7.46319 13.1771 8.73125 13.1771Z" fill="var(--fill-0, #8B8B8C)"/>
</g>
</svg>
