<svg width="24" height="4" viewBox="0 0 24 4" fill="none" xmlns="http://www.w3.org/2000/svg">
<path d="M23.1544 3.99568C23.1035 3.95348 23.2704 3.96411 23.2141 3.99978C23.2099 4.00093 23.1584 3.99733 23.1544 3.99568ZM21.3539 0.176096C21.3531 0.184887 21.2296 0.277014 21.3902 0.230412C21.371 0.222019 21.3514 0.213152 21.3321 0.204791C21.4095 0.17762 21.4188 0.235733 21.4378 0.237586C21.4968 0.24332 21.5579 0.147649 21.6549 0.249884C21.6806 0.27722 21.6404 0.314404 21.6436 0.318549C21.6746 0.355403 21.7103 0.24504 21.7574 0.320598C21.7606 0.326432 21.6577 0.383882 21.8405 0.367741C21.8278 0.361212 21.8146 0.354783 21.8018 0.348269C21.8272 0.32888 22.0124 0.301366 22.0374 0.303176C22.1104 0.30857 22.0485 0.369509 22.1214 0.356468C22.0728 0.284863 22.2946 0.254751 22.2836 0.321623C22.3124 0.236266 22.5037 0.282404 22.5927 0.27653C22.6487 0.272654 22.7616 0.22699 22.7799 0.229388C22.8018 0.232656 22.7969 0.289778 22.8364 0.299077C22.8477 0.301778 22.9631 0.249726 23.0672 0.300102C23.0874 0.309789 23.1317 0.403749 23.0954 0.431281C23.0334 0.478007 22.9117 0.410031 22.9147 0.467151C22.9181 0.528407 23.0785 0.478103 23.1221 0.482523C23.3218 0.503159 23.2108 0.578285 23.2149 0.59833C23.2295 0.645657 23.3393 0.636345 23.344 0.640349C23.3621 0.658399 23.2879 0.702087 23.2867 0.73156C23.2863 0.770067 23.3929 0.832424 23.3698 0.847367C23.336 0.868302 23.2371 0.817465 23.231 0.820721C23.1527 0.863914 23.2642 0.945053 23.2956 0.986745C23.3047 0.999476 23.2703 1.02291 23.277 1.02671C23.3945 1.07873 23.2983 0.900056 23.3755 0.906807C23.4444 0.912968 23.3579 0.978321 23.3601 0.981621C23.3636 0.984928 23.4457 0.982358 23.4594 1.00212C23.466 1.01224 23.2556 1.14043 23.2657 1.19069C23.3336 1.17511 23.402 1.15925 23.4699 1.14355C23.4771 1.21003 23.3774 1.16776 23.3674 1.17532C23.3481 1.19034 23.4048 1.21974 23.4037 1.24091C23.4028 1.25443 23.3372 1.30681 23.3981 1.32289C23.4191 1.32803 23.4613 1.27899 23.5377 1.32187C23.2765 1.39861 23.4599 1.42559 23.4683 1.44895C23.4765 1.47224 23.3524 1.53478 23.5046 1.51659C23.5147 1.64638 23.5021 1.55803 23.4594 1.5832C23.4079 1.61401 23.5307 1.65051 23.3367 1.6283C23.3501 1.68785 23.5051 1.67614 23.5135 1.68056C23.5196 1.68523 23.4871 1.71604 23.499 1.72566C23.6483 1.83638 23.5466 1.78763 23.591 1.86093C23.5949 1.86746 23.7338 1.88933 23.6289 1.905C23.438 1.93316 23.3559 1.85125 23.3287 2.03618C23.4723 2.10988 23.6405 1.98419 23.6838 1.97982C23.7495 1.97412 23.6829 2.01457 23.691 2.02491C23.6939 2.02822 23.7507 2.02296 23.7516 2.02593C23.7959 2.16577 23.499 2.0388 23.407 2.06693C23.4322 2.08689 23.4575 2.10734 23.4828 2.12739C23.4492 2.12953 23.4155 2.1314 23.3819 2.13354C23.5432 2.16964 23.3881 2.14986 23.3513 2.26472C23.3441 2.28968 23.4462 2.2434 23.3287 2.31801C23.4176 2.33136 23.3901 2.35466 23.4691 2.32006C23.4683 2.36584 23.2894 2.42385 23.2189 2.44919C23.4715 2.4927 23.3242 2.32989 23.5433 2.41127C23.5821 2.35338 23.4795 2.36758 23.4877 2.35798C23.5173 2.324 23.5893 2.3741 23.6717 2.25345C23.685 2.23352 23.6247 2.17599 23.712 2.17556C23.7217 2.17559 23.7789 2.2251 23.7782 2.22885C23.7719 2.26913 23.7163 2.25615 23.7144 2.27292C23.713 2.28803 23.7693 2.27809 23.7741 2.28112C23.7774 2.33124 23.724 2.30257 23.7322 2.31801C23.7511 2.35175 23.9726 2.4525 23.6838 2.42972C23.9222 2.36561 23.7129 2.37326 23.62 2.39795C23.5966 2.4043 23.5914 2.43478 23.5579 2.44612C23.5145 2.46082 23.4625 2.44818 23.44 2.45432C23.4182 2.46175 23.5549 2.52681 23.3561 2.51171C23.4597 2.57848 23.6375 2.49902 23.7386 2.54553C23.9421 2.64003 23.6021 2.67042 23.5659 2.68081C23.5565 2.68364 23.5891 2.72328 23.5829 2.7259C23.5709 2.7297 23.3783 2.71608 23.3601 2.74947C23.3421 2.78281 23.4302 2.74637 23.4376 2.78022C23.4423 2.80351 23.2095 2.84987 23.3367 2.86323C23.4244 2.8725 23.5828 2.77532 23.6127 2.87553C23.4845 2.88631 23.3561 2.89668 23.2278 2.9073C23.2991 2.94403 23.3703 2.98185 23.4417 3.019C23.2979 3.0331 23.172 2.99249 23.0365 3.04872C23.3691 3.16585 22.932 3.14679 22.9276 3.16146C22.9283 3.17147 23.0582 3.26609 23.0801 3.28444C22.9663 3.32343 22.6181 3.34418 22.8251 3.46378C22.788 3.4377 22.7033 3.50136 22.7008 3.50888C22.7137 3.56207 22.909 3.52821 22.8784 3.57652C22.8429 3.63244 22.7882 3.55603 22.7315 3.56217C22.4407 3.59419 22.528 3.86975 22.2344 3.82453C22.2404 3.83426 22.2461 3.84451 22.2521 3.85425C21.9333 3.83641 21.6146 3.81901 21.2958 3.80198C21.1735 3.88295 20.8433 3.92818 20.68 3.91779C20.6475 3.91572 20.4872 3.8734 20.4726 3.86552C20.4498 3.85131 20.5729 3.8462 20.5162 3.8194C20.5011 3.81374 20.2318 3.79576 20.2523 3.8399C20.2833 3.84507 20.3773 3.82341 20.3936 3.83375C20.5054 3.90933 19.6653 3.84354 19.6229 3.8727C19.6417 3.8869 19.6605 3.90149 19.6793 3.91574C19.6263 3.9083 19.5734 3.90057 19.5204 3.89319C19.5413 3.8812 19.5624 3.86937 19.5833 3.85732C19.5223 3.84889 19.4409 3.85695 19.384 3.84503C19.3747 3.84301 19.397 3.80781 19.3751 3.80608C19.3535 3.8048 19.3588 3.85224 19.3275 3.85732C19.292 3.86264 19.1278 3.82829 19.0709 3.82863C18.8592 3.83044 18.646 3.85591 18.4333 3.83478C18.6505 3.80156 18.4303 3.76389 18.3688 3.77841C18.3552 3.78183 18.3593 3.86974 18.1388 3.84605C17.9988 3.83105 18.1241 3.7087 17.8926 3.76919C18.0742 3.8564 17.8983 3.84851 17.7578 3.85015C17.7336 3.85044 17.5376 3.83682 17.4512 3.8399C17.4216 3.841 17.3774 3.88422 17.3382 3.88499C17.3113 3.88539 17.2902 3.86156 17.2502 3.86245C17.0636 3.86628 16.8799 3.86693 16.6926 3.85732C16.7989 3.74665 16.6047 3.80842 16.5957 3.80301C16.552 3.77284 16.7516 3.76492 16.6716 3.74562C16.5603 3.7485 16.4488 3.75203 16.3375 3.75484C16.4292 3.76896 16.22 3.84599 16.1793 3.81018C16.199 3.9066 15.6687 3.7229 15.5894 3.75484C15.5729 3.76143 15.6831 3.80974 15.4296 3.78661C15.4022 3.78402 15.4116 3.75534 15.3973 3.75791C15.3882 3.76091 15.3391 3.84859 15.2827 3.79891C15.262 3.78063 15.3897 3.72234 15.106 3.74459C15.2209 3.83636 14.7133 3.79102 14.6186 3.76816C14.6375 3.78026 14.6561 3.79291 14.675 3.80506C14.5819 3.77193 14.566 3.80176 14.5451 3.79993C14.461 3.7926 14.3447 3.76173 14.2667 3.76406C14.1756 3.76682 14.1767 3.82092 14.0698 3.79891C14.0953 3.81114 14.1209 3.82351 14.1464 3.8358C14.0727 3.83225 13.999 3.82906 13.9253 3.82555C14.0938 3.75472 13.8881 3.82214 13.8745 3.8235C13.8534 3.82561 13.8832 3.79656 13.847 3.79993C13.8437 3.80153 13.8486 3.82807 13.7938 3.83068C13.6766 3.83604 13.6937 3.80196 13.6445 3.80198C13.6415 3.8038 13.6537 3.82678 13.5719 3.8317C13.302 3.84791 13.5729 3.81257 13.5832 3.80916C13.5951 3.8034 13.5026 3.70185 13.7316 3.73947C13.6542 3.72732 13.6451 3.6812 13.6364 3.68003C13.6278 3.67913 13.4952 3.68465 13.4879 3.68618C13.4227 3.70141 13.4812 3.73291 13.4686 3.73844C13.457 3.7424 13.2962 3.70254 13.2612 3.79481C13.1818 3.70867 13.3034 3.71736 13.4322 3.70462C13.4506 3.68696 13.3081 3.66871 13.3007 3.66875C13.1178 3.66841 13.2208 3.73981 13.1821 3.78456C13.1614 3.80731 13.0864 3.75958 13.1562 3.82248C12.9908 3.82765 13.0904 3.7921 13.0796 3.78661C13.0631 3.77861 13.0054 3.79624 12.9981 3.79378C12.9877 3.79006 13.0236 3.76891 12.9819 3.76099C12.9749 3.75987 12.9078 3.79679 12.9956 3.81531C12.8787 3.8091 12.8893 3.84041 12.848 3.77636C12.771 3.89579 12.7874 3.70661 12.756 3.69847C12.673 3.68082 12.6968 3.77026 12.6938 3.77841C12.664 3.80757 12.4292 3.77355 12.3718 3.78661C12.3931 3.72025 12.5568 3.78784 12.5929 3.77534C12.7126 3.73241 12.4221 3.74058 12.5074 3.65645C12.4712 3.67961 12.4346 3.70216 12.3985 3.72512C12.3299 3.67078 12.4244 3.6475 12.2435 3.6667C12.2155 3.71284 12.3718 3.65984 12.3412 3.69642C12.3229 3.71787 12.2178 3.72203 12.2161 3.73332C12.2145 3.74679 12.3078 3.73157 12.2952 3.75177C12.2636 3.79682 11.9154 3.75226 12.1789 3.72922C12.1053 3.72953 12.0645 3.64003 12.0014 3.66773C11.9608 3.68547 12.1962 3.80968 11.8473 3.78456C11.8395 3.7431 11.9864 3.77334 11.9901 3.77021C11.9942 3.76288 11.9657 3.67028 11.9611 3.66568C11.9424 3.65079 11.5895 3.69943 11.5132 3.65236C11.5444 3.70639 11.2443 3.66173 11.2121 3.67798C11.2039 3.68262 11.2366 3.71454 11.2275 3.71795C11.1702 3.73799 11.0128 3.67973 10.9402 3.67798C10.859 3.67602 10.8697 3.70367 10.8651 3.7036C10.8295 3.70186 10.8571 3.68313 10.8353 3.6831C10.8013 3.68303 10.58 3.67843 10.5649 3.68208C10.5616 3.68326 10.5988 3.71532 10.5496 3.72102C10.5415 3.72104 10.5435 3.68532 10.3995 3.70052C10.2246 3.71882 10.5233 3.74717 10.4511 3.78558C10.3365 3.72966 10.3415 3.78399 10.3107 3.77944C10.2991 3.77711 10.2192 3.73087 10.134 3.73332C10.1954 3.72622 10.2573 3.71901 10.3188 3.7118C10.2579 3.70339 10.1398 3.71294 10.0896 3.7036C10.0657 3.69874 10.0841 3.66174 10.0315 3.6626C10.02 3.66387 9.97933 3.75407 10.1162 3.71385C10.1279 3.74651 10.061 3.72527 10.0307 3.73434C10.0257 3.7378 10.0085 3.78936 9.96933 3.75586C9.96055 3.74639 10.0568 3.58932 9.79744 3.70257C9.78915 3.70617 9.81836 3.72586 9.81116 3.73024C9.80559 3.73297 9.73824 3.7245 9.73046 3.72717C9.72299 3.7301 9.75577 3.75252 9.74741 3.75689C9.70163 3.77831 9.63809 3.69269 9.73369 3.6995C9.70146 3.68881 9.66906 3.67833 9.63684 3.66773C9.67255 3.73172 9.5874 3.68542 9.54323 3.6872C9.2603 3.69854 9.45043 3.73982 9.40281 3.76099C9.32532 3.79466 9.38195 3.68704 9.26642 3.71897C9.25836 3.72262 9.39552 3.76886 9.12278 3.74152C9.16313 3.74001 9.20347 3.73792 9.24383 3.73639C9.21859 3.67568 9.0975 3.7398 9.08807 3.74049C8.98067 3.74804 9.05285 3.72701 8.89358 3.75689C8.8794 3.75955 8.84801 3.74478 8.81772 3.75177C8.69205 3.78109 8.98341 3.77156 8.99365 3.79583C8.99777 3.80781 8.68417 3.80149 8.67085 3.79583C8.62405 3.7706 8.81354 3.78613 8.77657 3.75484C8.75859 3.7442 8.31248 3.76319 8.22215 3.75074C8.11748 3.73624 8.06799 3.65777 8.06962 3.74562C8.03787 3.65934 8.01357 3.71763 8.00022 3.71692C7.83872 3.70802 7.83818 3.70748 7.70001 3.71487C7.66956 3.71636 7.64289 3.6911 7.63222 3.6954C7.62675 3.69882 7.63805 3.72516 7.60801 3.73332C7.56523 3.74454 7.30714 3.71551 7.28762 3.70052C7.26852 3.68551 7.39666 3.6936 7.37317 3.66875C7.28065 3.66593 7.19191 3.67167 7.09878 3.66875C7.06007 3.66747 7.07919 3.6507 7.06246 3.65031C7.05424 3.65023 6.9227 3.66457 6.9285 3.6708C6.94475 3.68521 7.35311 3.67817 7.24646 3.7077C7.22569 3.71337 7.15048 3.67308 7.16334 3.72102C6.79455 3.70786 6.42568 3.69514 6.05692 3.6831C6.26765 3.64972 6.50675 3.68115 6.72836 3.679C6.75864 3.67872 6.86089 3.68431 6.8486 3.66055C6.65988 3.65381 6.42561 3.66505 6.24415 3.64928C6.23899 3.64834 6.25882 3.62813 6.23769 3.62468C6.19708 3.61851 6.06622 3.65161 6.0432 3.64313C6.03935 3.64114 6.11334 3.61344 6.09001 3.59599C6.03048 3.55196 6.01824 3.64911 5.96815 3.64826C5.92913 3.64702 5.66566 3.60042 5.60096 3.62981C5.53272 3.66089 5.7919 3.64851 5.77608 3.67388C5.59905 3.69905 5.41775 3.67129 5.24991 3.67388C5.25088 3.6766 5.27051 3.69403 5.23619 3.69642C5.17133 3.70085 5.15325 3.67244 5.12159 3.66773C5.08736 3.66287 4.96685 3.66645 4.9497 3.65645C4.94763 3.65515 4.9706 3.62811 4.97471 3.62673C5.02713 3.61549 5.04738 3.65187 5.05219 3.65236C5.07011 3.65355 5.08749 3.63921 5.10384 3.64006C5.13086 3.64153 5.14642 3.65521 5.18212 3.65645C5.20617 3.65713 5.18231 3.63295 5.20552 3.63391C5.21425 3.63436 5.31048 3.69035 5.3177 3.63288C5.3164 3.61442 4.5491 3.59128 4.47275 3.60521C4.53881 3.61188 4.60522 3.61891 4.67128 3.62571C4.53694 3.60944 4.37776 3.65248 4.36461 3.58779C3.86786 3.58256 3.37078 3.57783 2.87405 3.57344C2.78522 3.56845 2.83244 3.53018 2.68682 3.54167C2.72478 3.5536 2.76265 3.56648 2.80061 3.57857C2.725 3.56999 2.39396 3.55336 2.34061 3.56114C2.3337 3.56218 2.32487 3.59627 2.24216 3.59906C2.16889 3.6015 2.15641 3.57611 2.11707 3.57139C2.08399 3.56752 2.04701 3.5748 2.03718 3.57344C2.02964 3.57236 2.02626 3.55656 2.00812 3.55397C1.95098 3.54603 1.99797 3.58881 1.94033 3.54065C1.95407 3.53876 1.96776 3.5364 1.98149 3.5345C1.91427 3.52782 1.82277 3.50717 1.91128 3.49555C1.89252 3.49692 1.87474 3.49754 1.85883 3.49965C1.81265 3.47863 1.55841 3.49231 1.54732 3.48838C1.5353 3.48249 1.57851 3.46548 1.52069 3.45149C1.50849 3.44856 1.16535 3.46365 1.28827 3.43509C1.314 3.4292 1.47865 3.43321 1.51827 3.43201C1.42396 3.38889 1.20745 3.45377 1.18174 3.45251C1.08226 3.44677 1.37088 3.41305 1.14704 3.41049C0.97574 3.40866 1.13713 3.4354 1.07199 3.44841C1.03499 3.45555 0.838829 3.42636 0.845214 3.46686C0.779078 3.4716 0.817173 3.44988 0.808899 3.44841C0.798804 3.44742 0.670076 3.4604 0.62732 3.45251C0.622123 3.45152 0.637554 3.43059 0.632162 3.42894C0.621564 3.42616 0.495375 3.43125 0.490127 3.43304C0.486931 3.43427 0.517435 3.45204 0.505461 3.45661C0.491253 3.46173 0.371105 3.4588 0.362619 3.46378C0.353333 3.47158 0.50327 3.46499 0.478829 3.48531C0.409303 3.48077 0.296594 3.49477 0.251251 3.51093C0.262347 3.50632 0.32938 3.50536 0.352935 3.50683C0.344025 3.53244 0.233087 3.53617 0.237531 3.52118C0.222787 3.53043 0.23496 3.53387 0.220584 3.54372C0.216026 3.54668 0.17094 3.54793 0.162479 3.55295C0.162949 3.55424 0.207699 3.56457 0.198795 3.57037C0.181925 3.58094 0.0468958 3.57924 0.0357774 3.57652C0.00525055 3.5688 0.114385 3.55892 0.123742 3.5468C0.124962 3.54494 0.0352401 3.52214 0.0293213 3.51913C0.0232321 3.49677 0.127314 3.51267 0.114865 3.49248C0.089037 3.48839 0.0632182 3.48423 0.0373914 3.48018C0.136281 3.45894 0.320407 3.4674 0.367461 3.44329C0.220271 3.4518 0.0661941 3.45241 0.06483 3.40024C0.0643353 3.37819 0.127165 3.36384 0.124549 3.35823C0.113649 3.33893 0.0269263 3.36131 0.0236722 3.36028C0.0211938 3.35915 0.0196663 3.35831 0.0196371 3.3572C0.0197732 3.34568 0.142168 3.33512 0.151181 3.32953C0.161517 3.3197 0.104519 3.28081 0.104374 3.27214C0.106557 3.27034 0.195525 3.25903 0.1649 3.24447C0.133628 3.22995 0.0555067 3.23164 0.0527247 3.23012C0.0385369 3.22138 0.17469 3.20905 0.178619 3.20348C0.175312 3.19997 0.109241 3.18682 0.104374 3.18195C0.102408 3.17716 0.157665 3.16419 0.179426 3.14813C0.195578 3.13615 0.147641 3.12867 0.156023 3.12661C0.16217 3.12523 0.291327 3.12168 0.298058 3.11944C0.307409 3.11614 0.277283 3.10366 0.28111 3.09997C0.287241 3.0948 0.329378 3.09771 0.323882 3.09279C0.319701 3.08901 0.157906 3.04814 0.15683 3.0354C0.158103 3.01388 0.330875 3.05646 0.168935 2.97801C0.167801 2.9775 0.128875 2.98464 0.127777 2.98416C0.103705 2.96966 0.227106 2.94051 0.0753212 2.95136C0.357761 2.91167 0.109725 2.91753 0.150374 2.87963C0.166214 2.86495 0.275815 2.85307 0.276268 2.85093C0.264831 2.83465 0.231258 2.84928 0.21897 2.84171C0.212281 2.83723 0.309845 2.81283 0.287566 2.80174C0.276176 2.79617 0.175458 2.80441 0.167321 2.80379C0.125653 2.79455 0.175822 2.77867 0.166514 2.77099C0.160373 2.76594 0.0989851 2.7697 0.0954966 2.76894C0.0927871 2.76708 0.177941 2.73991 0.195567 2.73102C0.208659 2.72423 0.157952 2.71779 0.167321 2.71463C0.223967 2.69574 0.345691 2.72746 0.227847 2.67876C0.220623 2.67577 0.175903 2.68038 0.174584 2.67978C0.147426 2.66581 0.227776 2.65877 0.242373 2.64494C0.266752 2.62088 0.150535 2.64147 0.247216 2.61932C0.173864 2.60952 0.133144 2.61264 0.0478826 2.62239C0.283967 2.59547 0.365937 2.53123 0.103567 2.55168C0.187055 2.54661 0.177143 2.51412 0.202023 2.51171C0.21849 2.51047 0.339031 2.53334 0.281917 2.46457C0.274712 2.45597 0.201598 2.4736 0.223812 2.45329C0.40036 2.44432 0.227286 2.44033 0.22704 2.43792C0.231329 2.39523 0.659469 2.39627 0.733846 2.38565C0.819426 2.37301 0.894905 2.3311 0.913811 2.32929C0.975243 2.32421 0.924988 2.34631 0.938828 2.35183C0.952942 2.35737 1.12696 2.30871 1.13574 2.30981C1.16947 2.31482 1.13623 2.33874 1.13978 2.33953C1.18293 2.34922 1.41626 2.31414 1.48195 2.31391C1.47952 2.29968 1.34774 2.30883 1.42949 2.27907C1.52437 2.24444 1.53182 2.3072 1.53441 2.30981C1.97384 2.27384 2.41363 2.23828 2.85307 2.20221C2.8466 2.16606 2.55953 2.21677 2.55286 2.21245C2.51469 2.18775 2.99776 2.14803 3.05886 2.15609C3.0135 2.15182 2.96783 2.14793 2.92247 2.14379C2.99853 2.09491 3.17119 2.13504 3.2824 2.1069C3.31832 2.09767 3.24871 2.08661 3.25012 2.08537C3.29024 2.06524 3.35542 2.07307 3.30742 2.09972C3.40575 2.06976 3.39226 2.09499 3.46802 2.0905C3.47193 2.09023 3.4392 2.07525 3.49868 2.06283C3.52676 2.05701 3.67752 2.0443 3.69721 2.02696C3.70529 2.01962 3.62699 1.95726 3.61893 2.01671C3.45531 2.00235 3.56753 2.0484 3.50433 2.05258C3.49459 2.0531 3.51592 2.01818 3.35665 2.04746C3.38601 1.98653 3.57046 2.01418 3.60198 2.00441C3.66664 1.98366 3.39734 1.9768 3.34938 2.02696C3.37103 1.97927 3.33071 2.02238 3.2711 2.02593C3.20562 2.0297 3.23307 2.01362 3.19767 2.01671C3.10123 2.0251 3.1418 2.05366 3.06128 2.03208C3.14151 2.1141 2.92506 2.05535 2.86195 2.03823C2.96351 2.02462 3.06544 2.01101 3.167 1.99724C3.16113 1.99313 3.15511 1.98904 3.14924 1.98494C3.17587 1.98316 3.20251 1.98159 3.22914 1.97982C3.22509 1.98458 3.22108 1.9894 3.21703 1.99416C3.3542 1.95227 3.38895 1.98246 3.40023 1.98187C3.54526 1.97261 3.7129 1.95707 3.85942 1.94395C3.88099 1.94178 3.86623 1.91311 4.02647 1.92242C4.07723 1.92556 4.03008 1.95371 4.0878 1.94497C4.15828 1.87359 4.15847 1.92488 4.1798 1.92345C4.24107 1.91795 4.27847 1.89785 4.28472 1.8968C4.36106 1.88732 4.47362 1.88023 4.55749 1.87016C4.55727 1.86914 4.51577 1.85382 4.56879 1.85478C4.58799 1.85496 4.76243 1.92745 4.91177 1.88553C4.87258 1.88297 4.83313 1.88084 4.79394 1.87836C4.84009 1.8827 5.16137 1.83085 5.08205 1.81379C5.03336 1.80376 4.91732 1.87186 4.90289 1.81789C5.0104 1.82473 5.60137 1.74541 5.64777 1.75435C5.65252 1.75637 5.61566 1.7774 5.62436 1.77895C5.63368 1.77978 5.76531 1.76441 5.78415 1.76972C5.79474 1.77297 5.73824 1.78876 5.74057 1.79534C5.74496 1.79974 5.91475 1.79322 5.92376 1.7687C5.88248 1.7819 5.76542 1.78378 5.82612 1.75845C5.83424 1.75554 5.87417 1.76712 5.88422 1.76357C5.97221 1.72656 5.7074 1.75699 5.66633 1.7605C5.83216 1.71535 6.09116 1.7273 6.28369 1.68979C6.36152 1.70273 6.16897 1.73141 6.25706 1.74C6.44114 1.75806 6.30551 1.70715 6.31113 1.70413C6.35642 1.68005 6.51344 1.77491 6.51127 1.69184C6.578 1.69835 6.55749 1.71126 6.65089 1.69184C6.6384 1.68714 6.62544 1.68216 6.61296 1.67749C6.71565 1.61909 6.93909 1.7226 6.92285 1.73385C6.87955 1.76251 6.76621 1.73374 6.75418 1.73488C6.73973 1.73768 6.70164 1.8266 6.54113 1.7646C6.47771 1.82689 6.793 1.78114 6.65008 1.83224C6.74705 1.81752 7.14787 1.82459 7.20531 1.79432C7.21208 1.79039 7.17911 1.73504 7.27874 1.7564C7.3251 1.76661 7.21299 1.77671 7.23436 1.78817C7.3015 1.82354 8.19874 1.72403 8.36983 1.70721C8.38089 1.70622 8.37756 1.72564 8.38839 1.72463C8.42182 1.7214 8.54297 1.68182 8.60306 1.68569C8.47839 1.66045 8.71786 1.63782 8.77979 1.63649C8.87294 1.63467 8.86855 1.66938 8.90892 1.67339C9.06451 1.68918 9.30223 1.587 9.4246 1.65494C9.41591 1.57792 9.6336 1.67605 9.73127 1.66929C9.80776 1.66384 9.91683 1.60233 9.81277 1.5791C9.94485 1.57178 10.0837 1.54518 10.2074 1.52991C10.2279 1.52738 10.2008 1.5534 10.2357 1.54836C10.2388 1.54623 10.2433 1.52449 10.272 1.51966C10.519 1.47848 10.4004 1.53758 10.4471 1.54836C10.473 1.55434 10.492 1.55737 10.506 1.55758C10.3619 1.57398 10.1954 1.59637 10.1509 1.60062C10.1902 1.6487 10.4705 1.56499 10.5536 1.57193C10.5565 1.57221 10.5475 1.60168 10.5504 1.60165L10.6706 1.58423C10.7185 1.57373 10.7574 1.55982 10.7368 1.54426C10.7257 1.53596 10.6351 1.54264 10.5278 1.55451C10.5562 1.54559 10.534 1.51632 10.5391 1.51454C10.601 1.49349 10.7544 1.5116 10.8086 1.51146C10.8209 1.51125 10.8195 1.49119 10.8215 1.49097C10.8708 1.4916 10.8526 1.55231 10.9014 1.48687C10.9917 1.55323 10.7358 1.51177 10.7538 1.55758C10.7686 1.59318 11.3352 1.52893 11.334 1.46944C11.3363 1.47557 11.3446 1.4824 11.3606 1.48994C11.397 1.50687 11.5547 1.48785 11.5818 1.47457C11.5863 1.47185 11.5833 1.4141 11.589 1.41308C11.6058 1.41092 11.7981 1.44007 11.8691 1.39976C11.8298 1.39478 11.7904 1.39031 11.7512 1.38541C11.9868 1.36504 11.9504 1.35014 11.8715 1.33929C11.8675 1.33947 11.8631 1.33716 11.8594 1.33724C11.7997 1.32967 11.7239 1.32426 11.7189 1.31982C11.714 1.30267 12.1132 1.25707 12.0377 1.31879C12.0249 1.32692 11.8423 1.3196 11.9344 1.35056C11.9507 1.35605 12.0693 1.33448 12.0756 1.33827C12.1181 1.36362 11.8596 1.42341 11.8925 1.46125C11.9544 1.41746 12.0359 1.43108 12.1079 1.41513C12.1407 1.40788 12.1483 1.37709 12.1523 1.37618C12.2119 1.36362 12.1796 1.39769 12.1991 1.39566C12.21 1.39429 12.328 1.31708 12.3081 1.41103C12.6996 1.31057 12.4146 1.33415 12.1733 1.35979C12.2487 1.31991 12.3993 1.32307 12.4662 1.30957C12.4898 1.30447 12.4751 1.27518 12.5155 1.2655C12.5991 1.24542 12.9992 1.24616 13.1038 1.24603C13.0402 1.26269 13.0601 1.29557 13.1094 1.28907C13.1583 1.28241 13.1161 1.24051 13.1256 1.23476C13.1383 1.22883 13.3683 1.23066 13.4064 1.22143C13.2325 1.25318 13.2728 1.28437 13.4209 1.27575C13.3998 1.28755 13.3783 1.29884 13.3572 1.31059C13.4436 1.28931 13.6278 1.32849 13.6776 1.30854C13.6846 1.30491 13.6563 1.27753 13.6606 1.27575C13.7046 1.25977 13.8535 1.27704 13.8608 1.26653C13.8664 1.25763 13.8032 1.23872 13.8253 1.22451C13.8301 1.22149 13.8932 1.25581 13.9536 1.24091C13.9758 1.23534 13.9617 1.20817 13.9673 1.20606C14.0139 1.18865 13.9878 1.23829 14.0738 1.22348C14.1367 1.2125 14.1825 1.16225 14.2699 1.17019C13.982 1.13485 14.2239 1.13932 14.3434 1.11075C14.362 1.10577 14.345 1.05571 14.4596 1.07078C14.2182 1.18586 14.5306 1.11531 14.5951 1.11075C14.5987 1.11077 14.6009 1.14448 14.6323 1.14252C14.6349 1.14226 14.6306 1.1192 14.6597 1.11485C14.9371 1.07416 14.7604 1.11663 14.8139 1.13535C14.837 1.14309 14.97 1.09851 15.0067 1.09435C15.0151 1.09356 15.0123 1.11854 15.0447 1.11485C15.1018 1.10827 15.1522 1.0772 15.1899 1.07181C15.1943 1.07131 15.1961 1.11102 15.2674 1.0923C15.2874 1.087 15.3091 1.07138 15.2803 1.06258C15.1844 1.03384 15.006 1.11262 14.8978 1.08513C14.7998 1.06036 15.1077 1.03037 15.1237 1.02876C15.1293 1.02825 15.0701 1.0527 15.131 1.05131C15.1833 1.05008 15.2771 0.973848 15.3554 0.981621C15.3612 0.982154 15.4222 1.03234 15.4223 1.03799C15.4198 1.04068 15.3249 1.06148 15.3392 1.07693C15.3429 1.07841 15.4009 1.07378 15.4094 1.08513C15.4195 1.0994 15.4504 1.24533 15.4635 1.24808C15.4966 1.2544 15.4743 1.22283 15.4958 1.22348C15.5422 1.22478 15.7034 1.25631 15.7072 1.20401C15.6807 1.20303 15.6539 1.2019 15.6273 1.20094C15.7735 1.18399 15.712 1.16726 15.7314 1.15584C15.7536 1.14349 15.7489 1.18917 15.7984 1.18966C15.8092 1.18976 16.0166 1.16366 16.0123 1.14457C15.8985 1.18442 15.9393 1.12466 15.934 1.12407C15.9138 1.12227 15.8891 1.15534 15.8622 1.15687C15.6722 1.16721 15.8621 1.10158 15.817 1.0923C15.8016 1.08957 15.7725 1.11787 15.7653 1.11792C15.7439 1.11518 15.7423 1.08011 15.7282 1.0841C15.6956 1.09342 15.7348 1.13998 15.733 1.14355C15.7043 1.17725 15.5873 1.14747 15.658 1.08718C15.6141 1.07122 15.6107 1.13737 15.5757 1.11383C15.506 1.06737 15.6087 1.07258 15.6362 1.06156C15.7345 1.02195 15.7648 1.04419 15.9049 1.02364C15.9553 1.01632 16.0144 0.979626 16.0381 0.975472C16.0529 0.972924 16.196 1.07456 16.1955 0.896559C16.2503 0.908908 16.3389 1.01929 16.3948 1.00929C16.4449 1.0001 16.4273 0.937325 16.4319 0.934478C16.4401 0.930147 16.4997 0.929698 16.5199 0.919105C16.5437 0.906396 16.5312 0.88319 16.5691 0.869913C16.6636 0.836877 16.6633 0.902377 16.6732 0.905782C16.7874 0.944743 16.736 0.857519 16.7604 0.847367C16.7836 0.838359 17.1123 0.845292 17.1816 0.815596C17.154 0.831291 17.1262 0.847115 17.0985 0.862739C17.15 0.899646 17.2013 0.827532 17.2042 0.901683C17.2112 0.781245 17.3172 0.851616 17.3487 0.846342C17.361 0.843996 17.3599 0.822951 17.3753 0.820721C17.4356 0.811898 17.5714 0.816599 17.6037 0.803298C17.7435 0.745535 17.3805 0.702481 17.3519 0.700814C17.4088 0.697071 17.7298 0.640996 17.5803 0.596281C17.5572 0.589875 17.518 0.647322 17.5052 0.650597C17.4202 0.672059 17.4848 0.618703 17.4794 0.613703C17.4677 0.607383 17.4118 0.659498 17.3963 0.655721C17.3912 0.654416 17.4222 0.607015 17.3398 0.613703C17.3803 0.567908 17.6126 0.580344 17.6432 0.567585C17.654 0.563004 17.5834 0.478018 17.7853 0.548113C17.7827 0.539802 17.7798 0.530799 17.7772 0.522492C17.8882 0.508385 17.9996 0.494653 18.1105 0.480474C18.099 0.501502 18.0379 0.54756 18.1162 0.531716C18.161 0.522482 18.1266 0.481112 18.1307 0.479449C18.1732 0.463243 18.8892 0.409606 19.0281 0.391312C19.075 0.385228 19.2041 0.336417 19.2161 0.333921C19.2762 0.324371 19.49 0.327839 19.5325 0.318549C19.5589 0.312625 19.5329 0.276008 19.5567 0.275505C19.5781 0.27543 19.5571 0.313899 19.5631 0.315474C19.6177 0.323924 20.0285 0.234942 20.1272 0.261158C20.0672 0.256345 19.7711 0.360462 19.7778 0.386188C19.7825 0.390412 19.8518 0.410888 19.8666 0.396437C19.8923 0.426493 19.9749 0.318805 20.0215 0.333921C20.026 0.337439 20.0089 0.393936 20.0901 0.396437C20.1187 0.39717 20.1917 0.346117 20.2677 0.388238C20.3753 0.354366 20.9446 0.376231 20.9835 0.311375C20.9846 0.307988 20.9042 0.293609 20.9577 0.263207C21.0282 0.223274 20.9673 0.34206 21.0513 0.34417C21.0664 0.344112 21.2931 0.312295 21.3039 0.304201C21.371 0.235138 21.1792 0.226599 21.1715 0.219139C21.1781 0.199744 21.3469 0.172317 21.3539 0.176096ZM19.1806 3.86142C19.1868 3.85779 19.3515 3.8674 19.3396 3.89012C19.306 3.93056 19.1545 3.87814 19.1806 3.86142ZM16.8782 3.8358C16.8784 3.81521 16.7664 3.80067 16.7563 3.8358C16.7783 3.83449 16.8773 3.84865 16.8782 3.8358ZM11.6374 3.68413C11.6447 3.68905 11.6435 3.74833 11.6512 3.75484C11.6552 3.75791 11.7772 3.73576 11.7932 3.74152C11.7977 3.74316 11.8011 3.74519 11.8037 3.74664C11.7847 3.7274 11.895 3.72911 11.8925 3.75074C11.8908 3.75924 11.8148 3.7543 11.8118 3.75279C11.8106 3.75217 11.8095 3.75134 11.8085 3.75074C11.8232 3.77402 11.5673 3.77127 11.6237 3.80608C11.5495 3.82437 11.6326 3.75531 11.5769 3.77329C11.558 3.77996 11.5415 3.84981 11.4405 3.81326C11.4109 3.80257 11.4436 3.7856 11.4381 3.77944C11.4358 3.77679 11.3437 3.74157 11.4195 3.73639C11.5351 3.72847 11.4319 3.7885 11.4938 3.78968C11.5029 3.78927 11.6149 3.75345 11.61 3.74459C11.6093 3.74362 11.5756 3.75075 11.5688 3.74767C11.547 3.73465 11.5561 3.71264 11.5535 3.71077C11.5433 3.7081 11.3586 3.74458 11.3308 3.7118C11.3284 3.70117 11.6256 3.67867 11.6374 3.68413ZM9.48109 3.79276C9.49452 3.82807 9.33078 3.81188 9.31807 3.80403C9.26736 3.77248 9.46808 3.80038 9.48109 3.79276ZM18.2162 3.78558C18.192 3.79767 18.2972 3.82909 18.2969 3.79583C18.2965 3.78489 18.2196 3.78403 18.2162 3.78558ZM11.0515 3.74767C11.1557 3.74564 11.2029 3.72609 11.3461 3.75381C11.2646 3.77543 11.3106 3.82314 11.2186 3.80813C11.226 3.80192 11.2338 3.79591 11.2412 3.78968C11.1109 3.80412 10.9592 3.77206 10.8086 3.77124C10.7704 3.77097 10.8147 3.80979 10.7642 3.79891C10.7239 3.79004 10.6789 3.75437 10.7005 3.74664C10.7062 3.74484 10.788 3.76809 10.8288 3.76611C10.9495 3.75992 10.9186 3.72698 10.9256 3.72614C10.9351 3.72588 11.0106 3.74841 11.0515 3.74767ZM7.23517 3.79993C7.17427 3.77497 7.38211 3.78291 7.31506 3.80301C7.30954 3.80379 7.2386 3.8011 7.23517 3.79993ZM6.93415 3.78046C6.90578 3.80462 6.82373 3.79151 6.77113 3.79071C6.79454 3.77003 6.88935 3.77958 6.93415 3.78046ZM8.55302 3.77329C8.55428 3.79557 8.55552 3.78934 8.52155 3.79071C7.9782 3.81299 8.09576 3.74012 8.55302 3.77329ZM7.94695 3.76714C7.93986 3.78218 7.85429 3.77683 7.82429 3.78046C7.84343 3.75908 7.90516 3.76504 7.94695 3.76714ZM7.70566 3.75791C7.71719 3.79155 7.58739 3.76532 7.54264 3.76919C7.53188 3.73623 7.66089 3.76168 7.70566 3.75791ZM9.44558 3.75381C9.39695 3.71949 9.63574 3.74047 9.52548 3.76201C9.51832 3.76267 9.44786 3.75543 9.44558 3.75381ZM6.33776 3.70872C6.33325 3.72571 6.24696 3.7105 6.2159 3.71282C6.22034 3.6959 6.30661 3.71098 6.33776 3.70872ZM12.7092 3.6749C12.6814 3.66885 12.5308 3.68402 12.526 3.68823C12.4874 3.72537 12.6919 3.71832 12.7092 3.6749ZM4.16366 3.64826C4.23652 3.63804 4.86912 3.63029 4.92307 3.64006L4.93033 3.65441C4.93214 3.67653 4.91617 3.71412 4.86496 3.6913C4.85593 3.68733 4.8966 3.66741 4.88917 3.6626C4.88243 3.65974 4.73831 3.64762 4.73019 3.64928C4.72292 3.65133 4.7319 3.67725 4.72454 3.68003C4.71451 3.68251 4.62401 3.65991 4.57686 3.65953C4.48855 3.65887 4.47845 3.67944 4.47114 3.68003C4.44969 3.68005 4.41293 3.66482 4.36945 3.66465C4.15013 3.66413 3.8149 3.67923 3.63991 3.63698C3.79505 3.6542 3.94211 3.63719 4.09587 3.63186C4.05251 3.67366 4.32105 3.59994 4.16366 3.64826ZM12.3178 3.56422C12.3092 3.56601 12.2602 3.6411 12.2669 3.65645C12.3322 3.65169 12.3985 3.54818 12.3178 3.56422ZM22.8558 3.64108C22.8497 3.63733 22.9324 3.54217 22.9583 3.61034C22.978 3.66273 22.872 3.65025 22.8558 3.64108ZM6.93576 3.63391C6.93284 3.65962 7.07344 3.64534 7.01727 3.62366C7.00312 3.61824 6.93701 3.62524 6.93576 3.63391ZM7.7678 3.60419C7.73658 3.58515 7.69321 3.62965 7.7218 3.64621C7.7498 3.64884 7.77033 3.6073 7.7678 3.60419ZM11.8287 3.59906C11.7272 3.60256 11.8427 3.64531 11.706 3.61444C11.761 3.65438 11.8527 3.6514 11.8287 3.59906ZM2.89826 3.60726C2.93942 3.62026 2.81272 3.63256 2.77479 3.61751C2.75738 3.59627 2.89298 3.60576 2.89826 3.60726ZM9.92818 3.61136C9.92408 3.60704 9.84572 3.59733 9.84748 3.61341C9.8505 3.63286 9.9401 3.62412 9.92818 3.61136ZM7.98327 3.57549C7.96574 3.57592 7.96818 3.60013 7.97036 3.60111C8.03932 3.63203 8.03335 3.57464 7.98327 3.57549ZM8.55625 3.59394C8.51284 3.59724 8.40172 3.57382 8.41422 3.60726C8.44947 3.60338 8.53967 3.61035 8.55625 3.59394ZM5.26443 3.58882C5.25306 3.58649 5.1439 3.5867 5.14177 3.60111C5.17606 3.60652 5.32154 3.60452 5.26443 3.58882ZM1.89272 3.58369C1.89926 3.60599 1.74727 3.59507 1.70791 3.59906C1.74137 3.58206 1.83769 3.58665 1.89272 3.58369ZM10.6593 3.57754C10.6297 3.56875 10.5325 3.5796 10.577 3.59496C10.5847 3.59712 10.6626 3.59229 10.6593 3.57754ZM11.3695 3.55192C11.3155 3.57589 11.444 3.60441 11.4672 3.58574C11.4776 3.57617 11.3933 3.54139 11.3695 3.55192ZM22.8493 3.47198C22.8311 3.33563 23.0235 3.53441 23.0874 3.5058C23.0939 3.50071 23.0289 3.45876 23.0511 3.44636C23.125 3.40539 23.3632 3.61737 23.1124 3.58164H23.1132C23.0486 3.57242 23.0863 3.53836 23.0841 3.53655C22.9447 3.48668 22.9823 3.56378 22.9615 3.57344C22.9155 3.59319 22.9202 3.49951 22.8428 3.5386C22.9703 3.48115 22.855 3.5046 22.8493 3.47198ZM0.469952 3.53245C0.479664 3.53034 0.712215 3.51995 0.668478 3.54372C0.637803 3.55974 0.410166 3.54569 0.469952 3.53245ZM0.734653 3.51913C0.747477 3.52831 0.718094 3.55521 0.690267 3.54167C0.67833 3.53575 0.699582 3.51968 0.734653 3.51913ZM2.30833 3.52118C2.2256 3.484 1.9821 3.55646 2.14209 3.54372C2.14529 3.54344 2.11402 3.52293 2.17598 3.52528C2.18119 3.5255 2.19219 3.54865 2.2704 3.53962C2.28628 3.53761 2.31013 3.52216 2.30833 3.52118ZM2.63275 3.514C2.55606 3.53297 2.79886 3.53527 2.8111 3.5304C2.8006 3.51878 2.64038 3.51214 2.63275 3.514ZM1.465 3.50273C1.47772 3.50141 1.52928 3.51532 1.56427 3.50785C1.52474 3.54149 1.33761 3.51989 1.465 3.50273ZM0.738688 3.50068C0.718107 3.51127 0.486823 3.51656 0.473987 3.514C0.402763 3.49405 0.720341 3.4971 0.738688 3.50068ZM2.35191 3.50273C2.3316 3.49849 2.13911 3.49496 2.21069 3.5058C2.21892 3.50684 2.34638 3.51321 2.35191 3.50273ZM1.92016 3.49555C1.93564 3.49439 1.92207 3.50791 1.93469 3.50785C2.39108 3.50301 2.1112 3.48292 1.92016 3.49555ZM0.584548 3.46891C0.659997 3.47539 0.825664 3.4514 0.758057 3.48838C0.724446 3.50674 0.701431 3.48496 0.696723 3.48428C0.654025 3.48179 0.565639 3.48652 0.584548 3.46891ZM1.25034 3.46583C1.28408 3.46502 1.25987 3.47896 1.2802 3.47916C1.29342 3.47923 1.56779 3.45998 1.52876 3.48223C1.49976 3.49783 1.12571 3.48691 1.06472 3.48736C1.11782 3.45932 1.16194 3.47996 1.2342 3.47813C1.25286 3.4776 1.24895 3.46687 1.25034 3.46583ZM1.57637 3.45866C1.57179 3.46023 1.56905 3.474 1.57072 3.47608C1.58926 3.47998 1.96525 3.46753 2.01781 3.46071C1.96594 3.45087 1.59315 3.45369 1.57637 3.45866ZM0.72739 3.36438C0.660873 3.38245 0.361951 3.37633 0.342443 3.37975C0.330314 3.38253 0.422609 3.4121 0.277882 3.39615L0.31904 3.40947C0.417756 3.42997 0.528038 3.3862 0.541776 3.38692C0.55677 3.38824 0.53339 3.40895 0.536934 3.40947C0.545967 3.41053 0.707404 3.40701 0.718513 3.40537C0.724211 3.40411 0.693918 3.37458 0.72739 3.36438ZM1.0042 3.39C0.947062 3.37201 0.830786 3.39492 0.860548 3.40127C0.873908 3.40399 0.994396 3.40464 1.0042 3.39ZM1.23985 3.31826C1.58058 3.31929 1.01363 3.26205 1.25356 3.349C1.057 3.31913 1.18978 3.36156 1.15995 3.3736C1.128 3.38632 1.01702 3.37439 1.02276 3.39615C1.09043 3.39375 1.15845 3.39141 1.22613 3.38897C1.15878 3.34198 1.29754 3.35416 1.34556 3.39307C1.3646 3.38297 1.38383 3.3725 1.40286 3.36233C1.43636 3.42253 1.44621 3.32613 1.5102 3.37565C1.59101 3.30134 1.27945 3.37869 1.23985 3.31826ZM0.683811 3.3818C0.745732 3.39146 0.585862 3.3945 0.580513 3.39307C0.539348 3.38104 0.655598 3.37749 0.683811 3.3818ZM2.19374 3.3818C2.2248 3.37938 2.31106 3.39048 2.3156 3.37667C2.2846 3.37905 2.19878 3.36829 2.19374 3.3818ZM0.745144 3.28136C0.703 3.30617 0.520844 3.30979 0.415882 3.31621C0.508404 3.32426 0.658639 3.33895 0.749986 3.34388C0.77601 3.3453 0.801237 3.33388 0.823425 3.33465C0.859048 3.33605 0.828253 3.35258 0.830688 3.3531C0.877396 3.36081 0.936222 3.32545 0.837144 3.32338C0.871842 3.31753 0.906554 3.31086 0.941249 3.30493C0.810634 3.28811 0.821287 3.33602 0.783881 3.33465C0.731745 3.33268 0.73501 3.29385 0.745144 3.28136ZM0.532899 3.33363C0.480096 3.3344 0.398415 3.32743 0.369882 3.3449C0.422812 3.34414 0.504596 3.35142 0.532899 3.33363ZM1.16237 3.30596C1.14253 3.30021 0.933303 3.31104 1.01792 3.32338C1.02456 3.32436 1.16934 3.31535 1.16237 3.30596ZM23.2254 3.26189C23.2771 3.28726 23.1585 3.29946 23.1229 3.28751C23.1204 3.26693 23.2209 3.2597 23.2254 3.26189ZM1.76602 3.25062C1.75068 3.2511 1.74721 3.28008 1.75069 3.28239C1.78369 3.3024 1.8186 3.25089 1.76602 3.25062ZM0.780653 3.20962C0.747712 3.19794 0.636694 3.23113 0.613601 3.23934C0.780858 3.22363 0.718987 3.25864 0.749179 3.26907C0.812266 3.29069 0.788882 3.21397 0.780653 3.20962ZM1.39883 3.23217C1.4306 3.23438 1.52403 3.23922 1.54005 3.22602C1.50541 3.22908 1.41205 3.21865 1.39883 3.23217ZM23.6273 2.99543C23.6466 2.96312 23.8534 2.94209 23.8492 2.98211C23.8442 3.0165 23.6606 2.99469 23.6273 2.99543ZM23.7193 2.82018C23.7702 2.86875 23.9834 2.85188 23.9985 2.85913C24.0045 2.86388 23.9934 2.97747 23.9525 2.96264C23.8235 2.91401 23.914 2.84639 23.6499 2.95239C23.7595 2.87911 23.6559 2.90008 23.6757 2.87143C23.6926 2.84821 23.7588 2.86558 23.7193 2.82018ZM23.8976 2.57012C23.9007 2.59265 23.8221 2.60107 23.8153 2.59779C23.7709 2.57543 23.868 2.5574 23.8976 2.57012ZM0.0858124 2.5404C0.145664 2.54951 0.0109838 2.56446 0.00268975 2.56192C-0.0149006 2.55229 0.0585127 2.53653 0.0858124 2.5404ZM23.8024 2.49224C23.7447 2.45808 23.8865 2.42091 23.9041 2.47174C23.9072 2.48138 23.8135 2.49876 23.8024 2.49224ZM23.6031 2.45739C23.6479 2.47958 23.5503 2.4977 23.5207 2.48506C23.5182 2.4632 23.5949 2.45445 23.6031 2.45739ZM0.741109 2.35183C0.742847 2.37312 0.577567 2.3733 0.536934 2.38155C0.579746 2.36209 0.678231 2.3543 0.741109 2.35183ZM1.34314 2.31596C1.30665 2.31891 1.25536 2.3223 1.24549 2.30879C1.27012 2.30896 1.34361 2.30535 1.34314 2.31596ZM1.66998 2.26472C1.57336 2.27805 1.66356 2.28692 1.56669 2.28932C1.58929 2.26891 1.60469 2.26548 1.66998 2.26472ZM2.03395 2.22988C2.06846 2.23079 2.02873 2.26673 1.99037 2.25242C1.97845 2.24786 2.01467 2.22945 2.03395 2.22988ZM1.17286 2.17863C1.26106 2.1857 1.02976 2.22133 1.02599 2.2186C1.02872 2.21278 1.12764 2.17521 1.17286 2.17863ZM3.51402 2.11612C3.49702 2.11636 3.52019 2.13085 3.45107 2.13354C3.44669 2.13307 3.44385 2.12075 3.43009 2.12124C3.3976 2.12245 3.2249 2.12805 3.1904 2.14174C3.19004 2.13931 3.18783 2.13633 3.18314 2.13457C3.14015 2.11886 3.01015 2.18764 3.03384 2.19196C3.06541 2.19735 3.1651 2.1691 3.18637 2.14891C3.19052 2.15209 3.20142 2.15529 3.22107 2.15916C3.24829 2.1644 4.05659 2.1081 3.51402 2.11612ZM3.01689 2.17556C2.99802 2.15293 2.90899 2.18406 2.93458 2.19093C2.9376 2.19168 3.02936 2.19094 3.01689 2.17556ZM1.67321 2.15096C1.74833 2.16575 1.39927 2.18445 1.38914 2.18171C1.38402 2.18027 1.38063 2.17896 1.37865 2.17761C1.36599 2.18548 1.2996 2.19277 1.29149 2.17658C1.31134 2.17619 1.36587 2.17015 1.3722 2.17146C1.37458 2.17196 1.3765 2.17193 1.37784 2.17249C1.40075 2.15562 1.65848 2.14811 1.67321 2.15096ZM2.8111 2.1028C2.82659 2.10688 2.76754 2.13124 2.87163 2.13149C2.79425 2.13656 2.81111 2.17314 2.76188 2.16019C2.75377 2.15791 2.72529 2.08046 2.8111 2.1028ZM1.71195 2.15404C1.65139 2.14122 1.85885 2.12737 1.79184 2.14891C1.78821 2.14994 1.71542 2.15459 1.71195 2.15404ZM2.15742 2.10485C2.25124 2.07371 2.19077 2.12062 2.19374 2.12227C2.20122 2.1245 2.26664 2.09987 2.25265 2.12124C2.1664 2.16165 2.14995 2.10728 2.15742 2.10485ZM2.65454 2.09255C2.70547 2.10029 2.58712 2.11431 2.55205 2.11202C2.55213 2.10071 2.64611 2.09156 2.65454 2.09255ZM3.1904 2.09255C3.13516 2.09807 3.08237 2.09797 3.03142 2.09562C3.0427 2.08181 3.1838 2.08322 3.1904 2.09255ZM3.75209 2.05873C3.73458 2.07307 3.825 2.06988 3.85135 2.06078C3.85903 2.04442 3.75604 2.05657 3.75209 2.05873ZM23.4126 2.00749C23.3658 1.95535 23.6126 1.89125 23.6587 1.94292C23.6101 1.96992 23.5009 1.94622 23.4562 1.96342C23.451 1.96554 23.4822 2.08505 23.4126 2.00749ZM3.82068 2.00851C3.82676 1.99818 3.7257 2.0007 3.7198 2.01773C3.74299 2.01476 3.81498 2.01662 3.82068 2.00851ZM4.46226 1.97367C4.42721 1.96829 4.37611 1.99532 4.42836 1.99724C4.47272 1.99883 4.46553 1.97626 4.46226 1.97367ZM5.50573 1.84146C5.48384 1.84511 5.50578 1.86483 5.48152 1.86708C5.40081 1.87452 5.3288 1.86524 5.25313 1.87221C5.24629 1.87287 5.29941 1.88375 5.24103 1.8886C5.23158 1.88917 5.17713 1.87208 5.10787 1.88143C4.9556 1.96371 4.84031 1.90555 4.64545 1.94702C4.65434 1.95266 4.79988 1.95734 4.80847 1.95727C4.97234 1.95451 5.26504 1.93163 5.43633 1.9173C5.48016 1.91366 5.45886 1.90004 5.47749 1.89783C5.49241 1.89615 5.47567 1.9255 5.5251 1.91115C5.54871 1.90423 5.47562 1.88141 5.4912 1.87426C5.50161 1.8698 5.55518 1.87568 5.57191 1.86503C5.57645 1.86163 5.52138 1.83887 5.50573 1.84146ZM5.9512 1.85478C5.91361 1.84422 5.90833 1.87336 5.89955 1.87426C5.8897 1.87498 5.67871 1.85802 5.86566 1.89988C5.87548 1.90211 6.00584 1.87043 5.9512 1.85478ZM5.17566 1.85786C5.18029 1.84063 5.08355 1.85848 5.07398 1.87528C5.09434 1.87367 5.17409 1.86292 5.17566 1.85786ZM4.62205 1.84351C4.90739 1.79974 4.94653 1.8738 4.68419 1.86708C4.67905 1.86689 4.6049 1.85279 4.62205 1.84351ZM5.28299 1.80867C5.22574 1.8128 5.08307 1.8242 5.18131 1.84454C5.20054 1.84849 5.25139 1.83986 5.27815 1.83941C5.1924 1.81874 5.28719 1.83798 5.28299 1.80867ZM5.37338 1.80354C5.34892 1.80684 5.31005 1.84346 5.35643 1.84249C5.36543 1.83196 5.42573 1.79674 5.37338 1.80354ZM5.70264 1.79022C5.67633 1.79696 5.3222 1.80938 5.3984 1.83224C5.41069 1.83571 5.72236 1.82622 5.70264 1.79022ZM5.60741 1.7646C5.5838 1.75519 5.52822 1.78432 5.56303 1.79842C5.59273 1.79816 5.61204 1.7673 5.60741 1.7646ZM6.46689 1.7359C6.44196 1.73073 6.22628 1.75253 6.30306 1.76972C6.31546 1.77131 6.54858 1.75304 6.46689 1.7359ZM6.14973 1.72668C6.15848 1.71013 6.0598 1.72472 6.04805 1.74513C6.0753 1.74534 6.14263 1.7399 6.14973 1.72668ZM7.14559 1.72156C7.12645 1.74419 7.06459 1.74322 7.02292 1.74513C7.03183 1.72881 7.116 1.72562 7.14559 1.72156ZM23.2585 1.62112C23.2322 1.69995 23.2883 1.67015 23.3069 1.68466C23.3239 1.69784 23.3363 1.74329 23.3723 1.71746C23.3344 1.68518 23.2963 1.65319 23.2585 1.62112ZM7.2852 1.65289C7.47384 1.61261 7.43235 1.73832 7.18513 1.71848C7.19266 1.71246 7.2002 1.70607 7.20773 1.70003C6.92372 1.70686 7.18842 1.69349 7.25776 1.68056C7.28405 1.67565 7.26157 1.658 7.2852 1.65289ZM8.21004 1.65289C8.26905 1.67851 8.03292 1.73381 7.98246 1.71848C7.97827 1.70027 8.20141 1.64952 8.21004 1.65289ZM7.80653 1.69286C7.82954 1.67417 7.86873 1.71301 7.86302 1.71541C7.84094 1.72387 7.7887 1.70739 7.80653 1.69286ZM6.94867 1.63137C6.94849 1.67627 7.03587 1.68617 7.07699 1.64059C7.10403 1.67532 7.01552 1.6886 6.95675 1.67851C6.94343 1.67622 6.89359 1.64393 6.94867 1.63137ZM7.79846 1.60575C8.04871 1.57606 7.94576 1.62115 7.95583 1.62317C7.96817 1.62503 8.00528 1.60988 8.01313 1.61292C8.19763 1.68612 7.84921 1.6584 7.74923 1.67851C7.84497 1.63395 7.97055 1.62777 7.79846 1.60575ZM7.41352 1.65392C7.4527 1.62072 7.60163 1.63242 7.53215 1.65597C7.5206 1.65915 7.44178 1.64853 7.41352 1.65392ZM7.75811 1.6078C7.76911 1.61225 7.73805 1.63431 7.72422 1.63547C7.66985 1.63983 7.72848 1.59592 7.75811 1.6078ZM9.37376 1.59653C9.34423 1.60866 9.28956 1.60255 9.2527 1.60677C9.25853 1.59069 9.36044 1.58169 9.37376 1.59653ZM9.53758 1.55963C9.4885 1.5727 9.42857 1.56691 9.37699 1.57193C9.39807 1.5559 9.51605 1.54234 9.53758 1.55963ZM11.2283 1.4633C11.0627 1.43517 11.8637 1.38537 11.401 1.48277C11.4224 1.4683 11.4441 1.45426 11.4655 1.43972C11.4062 1.43459 11.3337 1.4456 11.3332 1.46637C11.3319 1.46325 11.3291 1.45917 11.3243 1.45612C11.3194 1.45311 11.256 1.46806 11.2283 1.4633ZM13.3774 1.33212C13.3731 1.3348 13.3726 1.36183 13.358 1.37004C13.3805 1.36613 13.4033 1.36165 13.4258 1.35774C13.3983 1.35134 13.3898 1.3244 13.3774 1.33212ZM12.8173 1.33519C12.788 1.3286 12.6916 1.34539 12.735 1.35979C12.7539 1.36569 12.8114 1.35385 12.8173 1.33519ZM11.5575 1.35261C11.567 1.33488 11.6919 1.30343 11.6996 1.33007C11.7093 1.36773 11.5819 1.35399 11.5575 1.35261ZM13.0199 1.30445C12.9667 1.294 12.8703 1.32295 12.9166 1.34134C12.9271 1.34507 13.0164 1.31886 13.0199 1.30445ZM12.0603 1.31777C11.9994 1.29302 12.207 1.28245 12.1402 1.31367C12.1359 1.31514 12.0644 1.31883 12.0603 1.31777ZM14.9293 1.20504C14.9205 1.2329 15.0246 1.2162 15.0277 1.21836C15.0324 1.22258 15.0511 1.29616 15.0608 1.2983C15.0802 1.30137 15.3557 1.28161 15.4006 1.29727C15.2775 1.18655 15.2923 1.27859 15.2819 1.27882C15.2593 1.27915 15.2063 1.25071 15.1641 1.25935C15.2123 1.2421 15.2604 1.22447 15.3086 1.20709C15.2692 1.20135 14.9357 1.18523 14.9293 1.20504ZM14.4434 1.26448C14.4122 1.2524 14.2561 1.26118 14.3216 1.28087C14.3272 1.28242 14.4449 1.28354 14.4434 1.26448ZM14.1456 1.24296C14.0807 1.28518 14.2157 1.26557 14.2635 1.26038C14.2644 1.2391 14.1502 1.24008 14.1456 1.24296ZM14.5112 1.18249C14.4894 1.16761 14.4309 1.20714 14.4668 1.22963C14.4879 1.23218 14.5134 1.18486 14.5112 1.18249ZM14.3103 1.19069C14.2917 1.18479 14.1746 1.19228 14.2078 1.21733C14.2421 1.24264 14.335 1.19977 14.3103 1.19069ZM14.7501 1.19479C14.7478 1.19224 14.6799 1.18162 14.6694 1.20401C14.6972 1.23082 14.7732 1.22221 14.7501 1.19479ZM13.7316 1.18351C13.7681 1.14358 14.0032 1.14899 13.9713 1.18351C13.9451 1.2109 13.7712 1.20523 13.7316 1.18351ZM15.612 1.17224C15.6466 1.20534 15.4943 1.20351 15.4893 1.19991C15.4634 1.17782 15.5835 1.14524 15.612 1.17224ZM13.4339 1.16507C13.4607 1.1675 13.5365 1.1485 13.5331 1.17019C13.4912 1.17861 13.449 1.19477 13.4339 1.16507ZM16.8548 1.14969C16.8477 1.16959 16.8823 1.15849 16.9064 1.16507C16.9339 1.1727 17.0068 1.18167 17.0557 1.14355C16.9889 1.14581 16.9217 1.1474 16.8548 1.14969ZM17.2494 1.09948C17.2273 1.10153 17.2046 1.14244 17.2155 1.14969C17.2926 1.20032 17.3062 1.09529 17.2494 1.09948ZM17.4213 1.08001C17.4256 1.09452 17.3889 1.13963 17.3963 1.14355C17.4189 1.15508 17.6347 1.12429 17.6005 1.08718C17.588 1.07428 17.4656 1.11867 17.4584 1.1169C17.4496 1.11354 17.4879 1.06606 17.4213 1.08001ZM17.1227 1.06566C17.1032 1.10048 17.1382 1.09663 17.151 1.10768C17.229 1.17584 17.1907 1.08411 17.1227 1.06566ZM14.8026 1.06566C14.7523 1.0375 14.9186 1.03038 14.8623 1.06361C14.8574 1.06494 14.8046 1.06672 14.8026 1.06566ZM16.808 1.00417C16.79 0.995058 16.6607 1.02892 16.7047 1.04516C16.7429 1.05883 16.8359 1.01915 16.808 1.00417ZM17.289 0.998018C17.2486 1.02198 17.344 1.07732 17.3858 1.02466C17.4069 0.99793 17.2977 0.994181 17.289 0.998018ZM17.41 0.980596C17.3929 1.00066 17.4454 1.02663 17.4673 1.01544C17.4722 1.0114 17.4326 0.954903 17.41 0.980596ZM16.1761 0.908857C16.192 0.955957 16.0677 0.920897 16.0373 0.928329C16.032 0.929738 16.0295 0.97055 16.0002 0.976496C15.9892 0.978634 15.9733 0.944779 15.9695 0.944726C15.958 0.945425 15.7602 0.976472 15.8355 0.925254C15.8491 0.916619 16.137 0.9077 16.1761 0.908857ZM16.8443 0.928329C16.832 0.927094 16.655 0.925379 16.6918 0.959074C16.7041 0.97029 17.031 0.950504 16.8443 0.928329ZM17.1574 0.89041C17.1429 0.882817 17.0718 0.900479 17.0751 0.919105C17.0813 0.948602 17.1789 0.903098 17.1574 0.89041ZM16.2221 0.846342C16.2251 0.848327 16.2349 0.889111 16.189 0.884261C16.1363 0.878678 16.1868 0.835844 16.2221 0.846342ZM15.6217 0.851466C15.6399 0.860448 15.5475 0.888112 15.5192 0.880161C15.5212 0.858162 15.6085 0.846044 15.6217 0.851466ZM15.6653 0.813547C15.6466 0.844856 15.5844 0.841154 15.5426 0.843267C15.5613 0.81215 15.6235 0.815642 15.6653 0.813547ZM16.5465 0.673144C16.5804 0.674951 16.5636 0.742033 16.5707 0.744882C16.5768 0.747024 16.6936 0.6977 16.649 0.769479C16.636 0.790024 16.5503 0.787904 16.5304 0.781777C16.527 0.780595 16.54 0.728282 16.5013 0.735659C16.4706 0.741749 16.5181 0.789518 16.4577 0.786901C16.3964 0.784196 16.4762 0.740186 16.4715 0.737709C16.4642 0.734945 16.3705 0.766636 16.3722 0.736684C16.3738 0.714274 16.4754 0.719123 16.5005 0.712088C16.5325 0.702991 16.4927 0.670277 16.5465 0.673144ZM17.0525 0.721311C17.0252 0.760418 16.9372 0.743056 16.8911 0.741808C16.9183 0.70932 17.0116 0.713564 17.0525 0.721311ZM17.3229 0.596281C17.3545 0.627887 17.2638 0.621896 17.2607 0.623951C17.2576 0.627824 17.2919 0.693981 17.2494 0.698765C17.2852 0.695804 17.3319 0.692268 17.3342 0.701839C17.3377 0.723534 17.2234 0.754101 17.2139 0.700814C17.2211 0.701298 17.234 0.699967 17.2486 0.698765C17.2344 0.700084 17.2118 0.694543 17.1768 0.678268C17.156 0.668637 17.2275 0.630108 17.2212 0.626001C17.2056 0.61899 17.193 0.616564 17.1832 0.616777C17.2481 0.600694 17.3155 0.589768 17.3229 0.596281ZM17.1655 0.620877C17.1384 0.636011 17.1392 0.68372 17.1066 0.681342C17.0089 0.673642 17.0795 0.643686 17.1655 0.620877ZM17.8644 0.575784C17.8601 0.545917 17.7166 0.587857 17.6844 0.577833C17.6609 0.633912 17.7802 0.574437 17.8038 0.585007C17.8087 0.59078 17.7055 0.717275 17.8619 0.613703C17.7771 0.607581 17.8635 0.586342 17.8644 0.575784ZM22.8073 0.595256C22.831 0.578505 22.7397 0.532482 22.7291 0.56861C22.7228 0.591043 22.792 0.605739 22.8073 0.595256ZM18.5116 0.486623C18.4724 0.46448 18.4036 0.500201 18.4293 0.515318C18.4352 0.518617 18.5135 0.505992 18.5116 0.486623ZM21.9543 0.478424C21.9718 0.521788 22.0489 0.479694 22.0939 0.486623C22.0795 0.452354 21.9902 0.470625 21.9543 0.478424ZM19.2589 0.397461C19.2231 0.413667 19.0189 0.408533 19.0168 0.429231C19.0179 0.451389 19.2442 0.428931 19.2589 0.397461ZM22.0391 0.416933C22.0215 0.373105 21.9447 0.415896 21.8994 0.408735C21.9215 0.456879 21.993 0.418362 22.0391 0.416933ZM19.639 0.392337C19.5626 0.441442 19.7207 0.425387 19.7189 0.395412C19.7181 0.384098 19.6421 0.390378 19.639 0.392337ZM22.2626 0.365691C22.234 0.333243 22.1225 0.385806 22.1399 0.398486C22.1457 0.402026 22.2776 0.383358 22.2626 0.365691ZM19.8593 0.368766C19.8704 0.38283 19.8712 0.391606 19.8666 0.396437C19.8623 0.391409 19.86 0.382589 19.8593 0.368766ZM22.0237 0.346219C22.0208 0.343026 21.9221 0.355479 21.9212 0.377989C21.9644 0.376935 22.0508 0.384445 22.0237 0.346219ZM20.4597 0.24476C20.5243 0.262748 20.4777 0.364118 20.4242 0.328797C20.4177 0.323138 20.3736 0.221289 20.4597 0.24476ZM20.6889 0.262182C20.6822 0.292884 20.6164 0.284158 20.588 0.279605C20.5887 0.252445 20.6614 0.268059 20.6889 0.262182ZM21.7744 0.198642C21.7757 0.223545 21.6773 0.234608 21.6719 0.231437C21.6383 0.211008 21.7362 0.171263 21.7744 0.198642ZM21.0715 0.230412C21.0217 0.195836 21.1875 0.187784 21.132 0.227338C21.1293 0.228898 21.0734 0.231771 21.0715 0.230412ZM22.0132 0.141251C22.0776 0.116843 22.1831 -0.0749911 22.1407 0.110506C22.0458 0.133916 21.9508 0.158034 21.8559 0.18122C21.8863 0.131623 21.9666 0.15868 22.0132 0.141251ZM21.9664 0.0326181C21.9943 -0.0234994 22.1194 0.00487393 22.0665 0.0285187C22.0515 0.0348571 21.9921 0.0280147 21.9664 0.0326181Z" fill="url(#paint0_linear_6503_6093)"/>
<defs>
<linearGradient id="paint0_linear_6503_6093" x1="0.00968419" y1="2.43604" x2="23.9748" y2="2.43606" gradientUnits="userSpaceOnUse">
<stop stop-color="#88EAC5"/>
<stop offset="0.25" stop-color="#5F92FF"/>
<stop offset="0.5" stop-color="#B388EB"/>
<stop offset="0.75" stop-color="#FFA69E"/>
<stop offset="1" stop-color="#FCD757"/>
</linearGradient>
</defs>
</svg>
